<svg xmlns="http://www.w3.org/2000/svg" viewBox="0 0 36 36"><defs><style>.cls-1,.cls-2{fill:#243858;fill-rule:evenodd;}.cls-2{opacity:0.5;}</style></defs><title>object-puzzle</title><g id="Layer_2" data-name="Layer 2"><g id="N700"><path class="cls-1" d="M14.06,14.06a6.36,6.36,0,0,1-9,0L0,19.12l4.09,4.09a6.29,6.29,0,0,0-1.27,1,6.36,6.36,0,0,0,9,9,6.44,6.44,0,0,0,1-1.27L16.88,36l5.06-5.06a6.37,6.37,0,0,1,0-9"/><path class="cls-2" d="M21.94,21.94a6.37,6.37,0,0,1,9,0L36,16.88l-4.08-4.09a6.45,6.45,0,0,0,1.27-1,6.36,6.36,0,1,0-9-9,6.26,6.26,0,0,0-1,1.27L19.13,0,14.06,5.06a6.36,6.36,0,0,1,0,9"/></g></g></svg>