<svg xmlns="http://www.w3.org/2000/svg" viewBox="0 0 31.3 36"><defs><style>.cls-1{fill:#243858;}</style></defs><title>security-shield gear</title><g id="Layer_2" data-name="Layer 2"><g id="N700"><circle class="cls-1" cx="15.67" cy="17.22" r="2.61"/><path class="cls-1" d="M15.66,0h0C11.74,3.91,0,7.08,0,7.08,0,19.54.78,30.49,15.65,36,30.52,30.49,31.3,19.54,31.3,7.08,31.3,7.08,19.57,3.91,15.66,0Zm5.94,22.64-1.7-1A6.25,6.25,0,0,1,17.53,23v2H14.05V23a6.7,6.7,0,0,1-2.5-1.41l-1.79,1L8,19.62l1.73-1a6.12,6.12,0,0,1-.17-1.41,6,6,0,0,1,.17-1.41L8,14.81l1.75-3,1.76,1a6.69,6.69,0,0,1,2.5-1.41v-2h3.48v2a6.27,6.27,0,0,1,2.38,1.41l1.67-1,1.74,3-1.73,1a6.06,6.06,0,0,1,0,2.82l1.74,1Z"/></g></g></svg>