<svg xmlns="http://www.w3.org/2000/svg" xmlns:xlink="http://www.w3.org/1999/xlink" viewBox="0 0 581.46 278.83"><defs><style>.cls-1{fill:url(#linear-gradient);}.cls-10,.cls-2,.cls-34,.cls-35,.cls-39,.cls-45{fill:none;}.cls-3{opacity:0.05;fill:url(#linear-gradient-2);}.cls-4{fill:#dfe1e5;}.cls-5{fill:#505f79;}.cls-6{fill:#97a0af;}.cls-7{fill:#253858;}.cls-8{fill:#a5adba;}.cls-9{fill:url(#linear-gradient-3);}.cls-10,.cls-34{stroke:#ebecf0;}.cls-10,.cls-34,.cls-35,.cls-39,.cls-45{stroke-miterlimit:10;}.cls-10,.cls-34,.cls-35,.cls-45{stroke-width:2.56px;}.cls-11{fill:#c1c7d0;}.cls-12{fill:#5e6c84;}.cls-13{clip-path:url(#clip-path);}.cls-14{fill:#79e2f2;}.cls-15{fill:#b3f5ff;}.cls-16{fill:#fff;}.cls-17{fill:#72594b;}.cls-18{fill:#344563;}.cls-19{fill:#00c7e5;}.cls-20{fill:#ebecf0;}.cls-21{fill:url(#linear-gradient-5);}.cls-22{fill:url(#linear-gradient-6);}.cls-23{fill:#b3bac5;}.cls-24{fill:url(#linear-gradient-7);}.cls-25{fill:url(#linear-gradient-8);}.cls-26{fill:#42526e;}.cls-27{fill:#e1c5b6;}.cls-28{fill:#00a3bf;}.cls-29{fill:#0065ff;}.cls-30{fill:url(#New_Gradient_Swatch_11);}.cls-31{fill:#e6fcff;}.cls-32{fill:#091e42;opacity:0.1;}.cls-33{fill:#b2d4ff;}.cls-34,.cls-45{stroke-linecap:round;}.cls-35,.cls-45{stroke:#c1c7d0;}.cls-36{clip-path:url(#clip-path-2);}.cls-37{fill:url(#linear-gradient-9);}.cls-38,.cls-46{fill:#2684ff;}.cls-38{opacity:0.8;}.cls-39{stroke:#2684ff;stroke-width:5.13px;opacity:0.4;}.cls-40{fill:#4c9aff;}.cls-41{fill:#b5917c;}.cls-42{fill:url(#linear-gradient-10);}.cls-43{fill:#162b4c;}.cls-44{fill:#172b4d;}</style><linearGradient id="linear-gradient" x1="487.37" y1="255.77" x2="549.17" y2="193.96" gradientUnits="userSpaceOnUse"><stop offset="0" stop-color="#00a3bf"/><stop offset="1" stop-color="#00c7e5"/></linearGradient><linearGradient id="linear-gradient-2" y1="2064.73" x2="581.46" y2="2064.73" gradientTransform="matrix(1, 0, 0, -2.47, 0, 5364.37)" gradientUnits="userSpaceOnUse"><stop offset="0" stop-color="#172b4d" stop-opacity="0.1"/><stop offset="0.02" stop-color="#172b4d" stop-opacity="0.23"/><stop offset="0.08" stop-color="#172b4d" stop-opacity="0.51"/><stop offset="0.15" stop-color="#172b4d" stop-opacity="0.73"/><stop offset="0.24" stop-color="#172b4d" stop-opacity="0.89"/><stop offset="0.36" stop-color="#172b4d" stop-opacity="0.98"/><stop offset="0.7" stop-color="#172b4d"/></linearGradient><linearGradient id="linear-gradient-3" x1="352.14" y1="237.25" x2="468.8" y2="120.6" gradientTransform="translate(231.54 589.4) rotate(-90)" gradientUnits="userSpaceOnUse"><stop offset="0.26" stop-color="#c1c7d0"/><stop offset="0.89" stop-color="#dfe1e5"/></linearGradient><clipPath id="clip-path"><path id="_Clipping_Path_" data-name="&lt;Clipping Path&gt;" class="cls-1" d="M485.28,171.09H516.8c12.14,0,22,9.25,22,20.66h0A20.66,20.66,0,0,0,552,210.69l11.1,4.56a20.67,20.67,0,0,1,13.18,18.94v19.49h-91Z"/></clipPath><linearGradient id="linear-gradient-5" x1="191.16" y1="263.67" x2="337.31" y2="263.67" gradientUnits="userSpaceOnUse"><stop offset="0" stop-color="#c1c7d0"/><stop offset="0.74" stop-color="#a5adba"/></linearGradient><linearGradient id="linear-gradient-6" x1="191.16" y1="261.81" x2="337.31" y2="261.81" gradientTransform="matrix(1, 0, 0, 1, 0, 0)" xlink:href="#linear-gradient-3"/><linearGradient id="linear-gradient-7" x1="7621.51" y1="133.78" x2="7582.74" y2="66.63" gradientTransform="matrix(-1, 0, 0, 1, 8014.38, 0)" gradientUnits="userSpaceOnUse"><stop offset="0.26" stop-color="#c1c7d0"/><stop offset="0.49" stop-color="#c7ccd4"/><stop offset="0.79" stop-color="#d7dadf"/><stop offset="0.89" stop-color="#dfe1e5"/></linearGradient><linearGradient id="linear-gradient-8" x1="7565.51" y1="232.66" x2="7497.92" y2="115.6" gradientTransform="matrix(-1, 0, 0, 1, 8014.38, 0)" gradientUnits="userSpaceOnUse"><stop offset="0.26" stop-color="#c1c7d0"/><stop offset="0.89" stop-color="#ebecf0"/></linearGradient><linearGradient id="New_Gradient_Swatch_11" x1="113.14" y1="197.29" x2="162.34" y2="148.09" gradientTransform="translate(-51.44 51.13)" xlink:href="#linear-gradient"/><clipPath id="clip-path-2"><rect class="cls-2" x="171.03" y="108.84" width="166.28" height="115.77"/></clipPath><linearGradient id="linear-gradient-9" x1="284.38" y1="112.68" x2="398.7" y2="-1.64" gradientTransform="translate(-57.61 151.97) rotate(-8.14)" gradientUnits="userSpaceOnUse"><stop offset="0" stop-color="#dfe1e5"/><stop offset="0.21" stop-color="#e9eaed"/><stop offset="0.66" stop-color="#f9fafa"/><stop offset="1" stop-color="#fff"/></linearGradient><linearGradient id="linear-gradient-10" x1="38.67" y1="260.31" x2="156.62" y2="260.31" gradientTransform="matrix(1, 0, 0, 1, 0, 0)" xlink:href="#linear-gradient-3"/></defs><title>Moving</title><g id="Layer_2" data-name="Layer 2"><g id="Layer_1-2" data-name="Layer 1"><path class="cls-3" d="M2.69,267.21H576.87a4.58,4.58,0,0,1,4.58,4.58v2.27a4.58,4.58,0,0,1-4.58,4.58H2.69A2.69,2.69,0,0,1,0,276v-6a2.69,2.69,0,0,1,2.69-2.69Z"/><circle class="cls-4" cx="269.43" cy="260.61" r="17.97"/><circle class="cls-4" cx="269.6" cy="260.61" r="17.97"/><circle class="cls-4" cx="269.77" cy="260.61" r="17.97"/><circle class="cls-4" cx="269.94" cy="260.61" r="17.97"/><circle class="cls-4" cx="270.11" cy="260.61" r="17.97"/><circle class="cls-4" cx="270.28" cy="260.61" r="17.97"/><circle class="cls-4" cx="270.46" cy="260.61" r="17.97"/><circle class="cls-4" cx="270.63" cy="260.61" r="17.97"/><circle class="cls-4" cx="270.8" cy="260.61" r="17.97"/><circle class="cls-4" cx="270.97" cy="260.61" r="17.97"/><circle class="cls-4" cx="271.14" cy="260.61" r="17.97"/><circle class="cls-4" cx="271.31" cy="260.61" r="17.97"/><circle class="cls-4" cx="271.48" cy="260.61" r="17.97"/><circle class="cls-4" cx="271.65" cy="260.61" r="17.97"/><circle class="cls-4" cx="271.82" cy="260.61" r="17.97"/><circle class="cls-4" cx="271.99" cy="260.61" r="17.97"/><circle class="cls-4" cx="272.16" cy="260.61" r="17.97"/><circle class="cls-4" cx="272.33" cy="260.61" r="17.97"/><circle class="cls-4" cx="272.51" cy="260.61" r="17.97"/><circle class="cls-4" cx="272.68" cy="260.61" r="17.97"/><circle class="cls-4" cx="272.85" cy="260.61" r="17.97"/><circle class="cls-4" cx="273.02" cy="260.61" r="17.97"/><circle class="cls-4" cx="273.19" cy="260.61" r="17.97"/><circle class="cls-4" cx="273.36" cy="260.61" r="17.97"/><circle class="cls-4" cx="273.53" cy="260.61" r="17.97"/><circle class="cls-4" cx="273.7" cy="260.61" r="17.97"/><circle class="cls-4" cx="273.87" cy="260.61" r="17.97"/><circle class="cls-4" cx="274.04" cy="260.61" r="17.97"/><circle class="cls-4" cx="274.21" cy="260.61" r="17.97"/><circle class="cls-4" cx="274.38" cy="260.61" r="17.97"/><circle class="cls-4" cx="274.56" cy="260.61" r="17.97"/><circle class="cls-4" cx="274.73" cy="260.61" r="17.97"/><circle class="cls-4" cx="274.9" cy="260.61" r="17.97"/><circle class="cls-4" cx="275.07" cy="260.61" r="17.97"/><circle class="cls-4" cx="275.24" cy="260.61" r="17.97"/><circle class="cls-4" cx="275.41" cy="260.61" r="17.97"/><circle class="cls-4" cx="275.58" cy="260.61" r="17.97"/><circle class="cls-4" cx="275.75" cy="260.61" r="17.97"/><circle class="cls-4" cx="275.92" cy="260.61" r="17.97"/><circle class="cls-4" cx="276.09" cy="260.61" r="17.97"/><circle class="cls-4" cx="276.26" cy="260.61" r="17.97"/><circle class="cls-4" cx="276.43" cy="260.61" r="17.97"/><circle class="cls-4" cx="276.61" cy="260.61" r="17.97"/><circle class="cls-4" cx="276.78" cy="260.61" r="17.97"/><circle class="cls-4" cx="276.95" cy="260.61" r="17.97"/><circle class="cls-4" cx="277.12" cy="260.61" r="17.97"/><circle class="cls-4" cx="277.29" cy="260.61" r="17.97"/><circle class="cls-4" cx="277.46" cy="260.61" r="17.97"/><circle class="cls-4" cx="277.63" cy="260.61" r="17.97"/><circle class="cls-4" cx="277.8" cy="260.61" r="17.97"/><circle class="cls-4" cx="277.97" cy="260.61" r="17.97"/><circle class="cls-4" cx="278.14" cy="260.61" r="17.97"/><circle class="cls-4" cx="278.31" cy="260.61" r="17.97"/><circle class="cls-4" cx="278.48" cy="260.61" r="17.97"/><circle class="cls-4" cx="278.66" cy="260.61" r="17.97"/><circle class="cls-4" cx="278.83" cy="260.61" r="17.97"/><circle class="cls-4" cx="279" cy="260.61" r="17.97"/><circle class="cls-4" cx="279.17" cy="260.61" r="17.97"/><circle class="cls-4" cx="279.34" cy="260.61" r="17.97"/><circle class="cls-4" cx="279.51" cy="260.61" r="17.97"/><circle class="cls-4" cx="279.68" cy="260.61" r="17.97"/><circle class="cls-4" cx="279.85" cy="260.61" r="17.97"/><circle class="cls-4" cx="280.02" cy="260.61" r="17.97"/><circle class="cls-4" cx="280.19" cy="260.61" r="17.97"/><circle class="cls-4" cx="280.36" cy="260.61" r="17.97"/><circle class="cls-4" cx="280.53" cy="260.61" r="17.97"/><circle class="cls-4" cx="280.71" cy="260.61" r="17.97"/><circle class="cls-4" cx="280.88" cy="260.61" r="17.97"/><circle class="cls-4" cx="281.05" cy="260.61" r="17.97"/><circle class="cls-4" cx="281.22" cy="260.61" r="17.97"/><circle class="cls-4" cx="281.39" cy="260.61" r="17.97"/><circle class="cls-4" cx="281.56" cy="260.61" r="17.97"/><circle class="cls-4" cx="281.73" cy="260.61" r="17.97"/><circle class="cls-4" cx="281.9" cy="260.61" r="17.97"/><circle class="cls-4" cx="282.07" cy="260.61" r="17.97"/><circle class="cls-4" cx="282.24" cy="260.61" r="17.97"/><circle class="cls-4" cx="282.41" cy="260.61" r="17.97"/><circle class="cls-4" cx="282.58" cy="260.61" r="17.97"/><circle class="cls-4" cx="282.76" cy="260.61" r="17.97"/><circle class="cls-4" cx="282.93" cy="260.61" r="17.97"/><circle class="cls-4" cx="283.1" cy="260.61" r="17.97"/><circle class="cls-4" cx="283.27" cy="260.61" r="17.97"/><circle class="cls-4" cx="283.44" cy="260.61" r="17.97"/><circle class="cls-4" cx="283.61" cy="260.61" r="17.97"/><circle class="cls-4" cx="283.78" cy="260.61" r="17.97"/><circle class="cls-4" cx="283.95" cy="260.61" r="17.97"/><circle class="cls-4" cx="284.12" cy="260.61" r="17.97"/><circle class="cls-4" cx="284.29" cy="260.61" r="17.97"/><circle class="cls-4" cx="284.46" cy="260.61" r="17.97"/><circle class="cls-4" cx="284.63" cy="260.61" r="17.97"/><circle class="cls-4" cx="284.81" cy="260.61" r="17.97"/><circle class="cls-4" cx="284.98" cy="260.61" r="17.97"/><circle class="cls-4" cx="285.15" cy="260.61" r="17.97"/><circle class="cls-4" cx="285.32" cy="260.61" r="17.97"/><circle class="cls-4" cx="285.49" cy="260.61" r="17.97"/><circle class="cls-4" cx="285.66" cy="260.61" r="17.97"/><circle class="cls-4" cx="285.83" cy="260.61" r="17.97"/><circle class="cls-4" cx="286" cy="260.61" r="17.97"/><circle class="cls-4" cx="286.17" cy="260.61" r="17.97"/><circle class="cls-4" cx="286.34" cy="260.61" r="17.97"/><circle class="cls-4" cx="286.51" cy="260.61" r="17.97"/><circle class="cls-4" cx="286.68" cy="260.61" r="17.97"/><circle class="cls-4" cx="286.86" cy="260.61" r="17.97"/><circle class="cls-4" cx="287.03" cy="260.61" r="17.97"/><circle class="cls-4" cx="287.2" cy="260.61" r="17.97"/><circle class="cls-4" cx="287.37" cy="260.61" r="17.97"/><circle class="cls-4" cx="287.54" cy="260.61" r="17.97"/><circle class="cls-4" cx="287.71" cy="260.61" r="17.97"/><circle class="cls-4" cx="287.88" cy="260.61" r="17.97"/><circle class="cls-4" cx="288.05" cy="260.61" r="17.97"/><circle class="cls-4" cx="288.22" cy="260.61" r="17.97"/><circle class="cls-5" cx="288.22" cy="260.61" r="17.97"/><path class="cls-6" d="M288.22,260.61H572a0,0,0,0,1,0,0v0a5.08,5.08,0,0,1-5.08,5.08H293.3a5.08,5.08,0,0,1-5.08-5.08v0A0,0,0,0,1,288.22,260.61Z"/><path class="cls-7" d="M269,260.61a23.44,23.44,0,0,1,46.87,0"/><rect id="_Rectangle_" data-name="&lt;Rectangle&gt;" class="cls-8" x="342.25" y="97.6" width="143.03" height="156.08" transform="translate(827.52 351.27) rotate(-180)"/><rect class="cls-9" x="348.88" y="123.86" width="123.18" height="110.13" transform="translate(589.4 -231.54) rotate(90)"/><line class="cls-10" x1="357.46" y1="1.28" x2="299.3" y2="100.14"/><rect id="_Rectangle_2" data-name="&lt;Rectangle&gt;" class="cls-11" x="230.35" y="97.6" width="111.89" height="156.08" transform="translate(572.6 351.27) rotate(-180)"/><rect class="cls-12" x="213.2" y="124.63" width="146.21" height="102.02" transform="translate(461.94 -110.66) rotate(90)"/><path id="_Clipping_Path_2" data-name="&lt;Clipping Path&gt;" class="cls-1" d="M485.28,171.09H516.8c12.14,0,22,9.25,22,20.66h0A20.66,20.66,0,0,0,552,210.69l11.1,4.56a20.67,20.67,0,0,1,13.18,18.94v19.49h-91Z"/><g class="cls-13"><circle class="cls-14" cx="573.38" cy="225.37" r="8.06"/><path id="_Rectangle_3" data-name="&lt;Rectangle&gt;" class="cls-15" d="M489.17,175.61h29.76a16.59,16.59,0,0,1,16.59,16.59v20.18a0,0,0,0,1,0,0H489.17a0,0,0,0,1,0,0V175.61A0,0,0,0,1,489.17,175.61Z"/><path class="cls-2" d="M515.51,203.64l-.53-.3a3.5,3.5,0,0,1-.28.39l-3.2.12a18.51,18.51,0,0,1,1.12,2.66c1.44.82,3.06,1.66,4.84,2.47.73.33,1.45.63,2.15.91a12.7,12.7,0,0,1-2-5.85A3.33,3.33,0,0,1,515.51,203.64Z"/><path class="cls-2" d="M520.28,200.28l1.57-.12.06,1.34a1.8,1.8,0,0,1-.89,1.63h0a2.25,2.25,0,0,1-.45.19l-.48.12c.28,4,2.5,7.28,5.1,7.28a3.92,3.92,0,0,0,2.88-1.46L524.46,203a.84.84,0,0,1,1.46-.85l3.21,5.56a11.16,11.16,0,0,0,1.19-5.13c0-4.41-2.35-8.13-5.13-8.13-2,0-3.82,2-4.65,4.77a1.2,1.2,0,0,1-.17.67Z"/><path class="cls-16" d="M492.46,194.51c0-.21,0-.45,0-.7v-.08A4.76,4.76,0,0,1,490,192.2a5.2,5.2,0,0,1-.79-1v2.51a8,8,0,0,1,1.82,1.14Q491.68,194.65,492.46,194.51Z"/><path class="cls-16" d="M498.35,193.74a4,4,0,0,0,.09.87l.27,0v-1.95l-.19.07A3.61,3.61,0,0,0,498.35,193.74Z"/><path class="cls-16" d="M490.62,180a3,3,0,0,1,1.62,1.8.09.09,0,0,1,0,0,5.34,5.34,0,0,1,2.52-.38,16.48,16.48,0,0,0-5.6-4.29v2.54A3.22,3.22,0,0,1,490.62,180Z"/><path class="cls-16" d="M531.82,212.38l-1.26-2.18a8,8,0,0,1-1.19,1.32l.5.86Z"/><path class="cls-16" d="M524.77,201.86a.83.83,0,0,0-.31,1.15l3.61,6.25a7.46,7.46,0,0,0,1.06-1.54l-3.21-5.56A.84.84,0,0,0,524.77,201.86Z"/><path class="cls-17" d="M521,203.13h0a1.8,1.8,0,0,0,.89-1.63l-.06-1.34-1.57.12a12.4,12.4,0,0,0-.22,2.31c0,.29,0,.57,0,.85l.48-.12A2.25,2.25,0,0,0,521,203.13Z"/><path class="cls-18" d="M530.56,210.2a13,13,0,0,0,2.26-7.61c0-6-3.35-10.63-7.63-10.63-3.48,0-6.34,3.07-7.29,7.42l2.65-.24s0,.06,0,.09c.83-2.79,2.62-4.77,4.65-4.77,2.78,0,5.13,3.72,5.13,8.13a11.16,11.16,0,0,1-1.19,5.13,7.46,7.46,0,0,1-1.06,1.54,3.92,3.92,0,0,1-2.88,1.46c-2.6,0-4.82-3.26-5.1-7.28,0-.28,0-.56,0-.85a12.4,12.4,0,0,1,.22-2.31l.09-.38a1.15,1.15,0,0,1-.61.47l-.46.16-.72.64a3.78,3.78,0,0,1-1,.61c0,.27,0,.53,0,.81,0,.49,0,1,.07,1.45a12.7,12.7,0,0,0,2,5.85c1.12.45,2.2.85,3.22,1.2l-.68,1.28h6.05a7.32,7.32,0,0,0,1.17-.86A8,8,0,0,0,530.56,210.2Z"/><path class="cls-17" d="M515.35,201.51a2.51,2.51,0,0,1-.37,1.83l.53.3a3.33,3.33,0,0,0,2.12.4c0-.47-.07-1-.07-1.45,0-.28,0-.54,0-.81a3.78,3.78,0,0,0,1-.61l.72-.64.46-.16a1.15,1.15,0,0,0,.61-.47,1.2,1.2,0,0,0,.17-.67s0-.06,0-.09l-2.65.24-1.19.12-1.81,1A2.37,2.37,0,0,1,515.35,201.51Z"/><path class="cls-18" d="M503.93,204.11l.68,0c-.41-.61-.8-1.22-1.13-1.79A4.55,4.55,0,0,1,503.93,204.11Z"/><path class="cls-18" d="M511.5,203.85l3.2-.12a3.5,3.5,0,0,0,.28-.39,2.51,2.51,0,0,0,.37-1.83,2.37,2.37,0,0,0-.45-1l0,0-5.93-.34c.14.16.28.31.41.47A17.32,17.32,0,0,1,511.5,203.85Z"/><path class="cls-7" d="M519.61,209.89c-.7-.28-1.42-.58-2.15-.91-1.78-.81-3.4-1.65-4.84-2.47a18.51,18.51,0,0,0-1.12-2.66,17.32,17.32,0,0,0-2.14-3.21c-.13-.16-.27-.31-.41-.47a18.21,18.21,0,0,0-10.24-5.51l-.27,0a19.66,19.66,0,0,0-3.82-.31h0a20,20,0,0,0-2.16.21q-.78.13-1.47.3a8.11,8.11,0,0,1,2.95,6.26v11.31h8.87c-.76-2.89-.38-4.51.2-5.47a5,5,0,0,0,.93-2.59,1.48,1.48,0,0,0,0-.21,4.55,4.55,0,0,0-.45-1.81c.33.57.72,1.18,1.13,1.79a38,38,0,0,0,2.34,3.15c.85,1,1.69,1.91,2.5,2.7a25.31,25.31,0,0,0,5.75,2.44h6.95l.68-1.28C521.81,210.74,520.73,210.34,519.61,209.89Z"/><path class="cls-17" d="M497.8,188.35c-.19,0-.38-.68-.66-.66s-.45.73-.52,1.22a9.47,9.47,0,0,0,.14,2c-.06,1.31-1.76,2.8-3.56,2.86a2.8,2.8,0,0,1-.72-.06v.08c0,.25,0,.49,0,.7a20,20,0,0,1,2.16-.21h0a19.66,19.66,0,0,1,3.82.31,4,4,0,0,1-.09-.87,3.61,3.61,0,0,1,.17-1l.19-.07.29-.12,1.3-.51-.44-3.22c.05-.2.51-.51.59-.74s-.34-.3-.65-.47-.33-.24-.39-.39a15.69,15.69,0,0,0-1.22-2.2,7.57,7.57,0,0,0-.22,2C498,187.53,498,188.31,497.8,188.35Z"/><path class="cls-7" d="M492.48,193.73a2.8,2.8,0,0,0,.72.06c1.8-.06,3.5-1.55,3.56-2.86a9.47,9.47,0,0,1-.14-2c.07-.49.25-1.2.52-1.22s.47.7.66.66.17-.82.17-1.27a7.57,7.57,0,0,1,.22-2,1.81,1.81,0,0,0,0-.84,4,4,0,0,0-2.16-2.4,4,4,0,0,0-1.29-.35,5.34,5.34,0,0,0-2.52.38.09.09,0,0,0,0,0,3,3,0,0,0-1.62-1.8,3.22,3.22,0,0,0-1.45-.28v11.44a5.2,5.2,0,0,0,.79,1A4.76,4.76,0,0,0,492.48,193.73Z"/><path class="cls-12" d="M493.94,201.07a8.11,8.11,0,0,0-2.95-6.26,8,8,0,0,0-1.82-1.14v18.71h4.77Z"/></g><path class="cls-6" d="M352,260.61a23.44,23.44,0,0,1,46.87,0"/><rect class="cls-19" x="485.28" y="242.64" width="90.95" height="11.04"/><path class="cls-6" d="M434.41,260.61a23.44,23.44,0,0,1,46.87,0"/><path class="cls-20" d="M246.79,253.68H579.86a1.59,1.59,0,0,1,1.59,1.59V259a1.59,1.59,0,0,1-1.59,1.59H246.79a0,0,0,0,1,0,0v-6.94A0,0,0,0,1,246.79,253.68Z"/><path class="cls-11" d="M512.09,260.61a23.44,23.44,0,0,1,46.87,0"/><polygon class="cls-21" points="293.16 278.58 191.16 278.58 241.61 248.76 337.31 248.76 337.31 252.48 293.16 278.58"/><polygon class="cls-22" points="293.16 274.86 191.16 274.86 235.31 248.76 337.31 248.76 293.16 274.86"/><rect class="cls-11" x="191.16" y="274.86" width="102" height="3.72"/><rect class="cls-11" x="403.47" y="91.72" width="22.94" height="174.57" transform="translate(231.18 -233.86) rotate(42.67)"/><rect class="cls-23" x="406.53" y="92.78" width="22.94" height="174.57" transform="translate(232.71 -235.65) rotate(42.67)"/><polygon class="cls-6" points="358.7 114.05 358.7 237.22 342.25 253.68 342.25 97.6 358.7 114.05"/><polygon class="cls-24" points="468.82 114.05 358.7 114.05 342.25 97.6 485.28 97.6 468.82 114.05"/><polygon class="cls-25" points="468.82 114.05 468.82 237.22 485.28 253.68 485.28 97.6 468.82 114.05"/><polygon class="cls-6" points="468.82 237.22 358.7 237.22 342.25 253.68 485.28 253.68 468.82 237.22"/><path class="cls-7" d="M375.43,242.64H365.31a18,18,0,1,0,0,35.94h10.12a18,18,0,0,0,0-35.94Z"/><path class="cls-7" d="M457.84,242.64H447.72a18,18,0,0,0,0,35.94h10.12a18,18,0,1,0,0-35.94Z"/><path class="cls-7" d="M547.14,242.64H537a18,18,0,1,0,0,35.94h10.12a18,18,0,1,0,0-35.94Z"/><circle class="cls-26" cx="375.43" cy="260.61" r="17.97"/><polygon class="cls-27" points="174.35 237.28 176.78 236.51 178.94 233.05 179.41 229.44 177.65 229.44 173.32 235.68 174.35 237.28"/><circle class="cls-26" cx="457.84" cy="260.61" r="17.97"/><circle class="cls-26" cx="547.14" cy="260.61" r="17.97"/><circle class="cls-28" cx="375.43" cy="260.61" r="10.27"/><rect class="cls-29" x="28.95" y="223.66" width="33.77" height="33.96" rx="2.11" ry="2.11"/><rect class="cls-30" x="69.41" y="190.27" width="33.77" height="67.09" rx="2.11" ry="2.11" transform="matrix(1, -0.04, 0.04, 1, -9.48, 3.89)"/><rect class="cls-7" x="113.23" y="160.1" width="33.77" height="95.87" rx="2.11" ry="2.11" transform="translate(12.46 -7.29) rotate(3.37)"/><circle class="cls-28" cx="457.84" cy="260.61" r="10.27"/><circle class="cls-28" cx="547.14" cy="260.61" r="10.27"/><circle id="_Ellipse_" data-name="&lt;Ellipse&gt;" class="cls-14" cx="357.46" cy="49.43" r="48.15"/><path class="cls-31" d="M352.31,53.17,341.9,42.76a1.29,1.29,0,0,0-1.83,0l-9,9a1.3,1.3,0,0,0,0,1.84L351.4,74a1.3,1.3,0,0,0,1.83,0L380,47.26l-8-13.78Z"/><path class="cls-31" d="M387.49,39.74a1.3,1.3,0,0,0,0-1.83l-9-9a1.3,1.3,0,0,0-1.84,0l-2.73,2.73,8,13.79Z"/><path class="cls-32" d="M383,90.22a48.08,48.08,0,0,0,22.53-38.65H385.41l-3.57-6.18L380,47.26l3.2,5.55a2.19,2.19,0,0,0-.14.72Z"/><path class="cls-32" d="M356.39,1.31c-.93,0-1.85.06-2.77.14a1.63,1.63,0,0,0,.16.47L372,33.48l1.88-1.88Z"/><polygon class="cls-31" points="373.88 31.6 372 33.48 379.96 47.26 381.84 45.39 373.88 31.6"/><polygon class="cls-32" points="373.88 31.6 372 33.48 379.96 47.26 381.84 45.39 373.88 31.6"/><rect class="cls-29" x="394.56" y="56.69" width="40.9" height="40.9" rx="1.97" ry="1.97"/><path class="cls-33" d="M423,88.66l-7.36-5.85-7.36,5.85a1.59,1.59,0,0,1-2.54-1.41V68.68a1.68,1.68,0,0,1,1.6-1.75H424a1.68,1.68,0,0,1,1.6,1.75V87.25A1.59,1.59,0,0,1,423,88.66Z"/><polyline class="cls-34" points="357.46 1.28 413.05 97.58 413.05 253.68"/><line class="cls-35" x1="143.68" y1="266.28" x2="175.69" y2="234.27"/><circle class="cls-11" cx="109.28" cy="267.4" r="8.68"/><circle class="cls-11" cx="30.11" cy="267.4" r="8.68"/><circle class="cls-8" cx="30.3" cy="267.4" r="4.19"/><circle class="cls-8" cx="109.48" cy="267.4" r="4.19"/><g class="cls-36"><path class="cls-7" d="M274.31,192.47l12.58.92,11-4.63,1.88,3.33-13.19,5.21-13.25,2C273.68,197,274,194.73,274.31,192.47Z"/><rect id="_Rectangle_4" data-name="&lt;Rectangle&gt;" class="cls-37" x="198.04" y="123.84" width="180.62" height="69.51" rx="2.87" ry="2.87" transform="translate(23.08 -36.16) rotate(7.47)"/><polygon class="cls-32" points="327.55 198.79 363.99 203.57 363.99 133.47 327.55 128.69 327.55 198.79"/><circle class="cls-38" cx="355.25" cy="182.61" r="11.6"/><rect class="cls-29" x="205.98" y="152.89" width="22.41" height="22.41" rx="3.36" ry="3.36" transform="translate(23.19 -26.85) rotate(7.47)"/><line class="cls-39" x1="210.91" y1="125.77" x2="371.64" y2="146.85"/><line class="cls-39" x1="209.25" y1="138.46" x2="309.53" y2="151.62"/><line class="cls-39" x1="238.36" y1="165.64" x2="306.04" y2="174.51"/><polygon class="cls-40" points="214.59 170.1 209.77 163.83 212.32 161.88 215.18 165.6 222.93 159.65 224.88 162.19 214.59 170.1"/></g><ellipse class="cls-32" cx="260.19" cy="267.4" rx="29.83" ry="5.59"/><path class="cls-18" d="M254.09,263.06a7.56,7.56,0,0,0-1.79,1.17,7.77,7.77,0,0,0-1.4,1.62c.15.29.31.59.5.89a12.89,12.89,0,0,0,3.37,3.61l3.79-.44a1,1,0,0,0,0-.31c-.28-1-2-1.1-2.15-1.11a4.74,4.74,0,0,1-.71-2,4.88,4.88,0,0,1,.21-2.08Z"/><circle class="cls-7" cx="261.38" cy="200.79" r="7.54"/><path class="cls-18" d="M265,211.41c2.26-2.42,8.22-2.15,10.36.63s.21,8.46-2.2,15c-.67,1.8-1.7,4.44-6.54,14.8-2.69,5.76-3.25,6.83-4.95,10.54-2.42,5.3-4.26,9.66-5.42,12.46l-3.44-1.12c1.12-3.88,1.91-7.07,2.41-9.23,1.06-4.57,1.43-7,2.68-11,.83-2.6,1.66-4.67,2.22-6q.65-3.12,1.25-6.33,1.19-6.24,2.11-12.23a9.78,9.78,0,0,1,0-4A7.79,7.79,0,0,1,265,211.41Z"/><path class="cls-18" d="M277.66,262.84c-.08.54-.15,1.13-.19,1.74a20.28,20.28,0,0,0,0,2.32.63.63,0,0,0,.69.59l7.82-1a1.47,1.47,0,0,0-.39-1c-.36-.33-.82-.24-1.39-.27a6.1,6.1,0,0,1-3.09-1.16,4.81,4.81,0,0,1-1.3-1.55Z"/><path class="cls-26" d="M269.26,207.65a6.69,6.69,0,0,1,5.19.12c2.08,1.07,3.29,3.54,4.36,13.19.53,4.8.87,10,1,17.94.1,5.94,0,7.35.15,12.61.16,4.9.44,8.9.65,11.54l-3.86.7c-1.46-4.73-2.52-8.75-3.28-11.85a30.68,30.68,0,0,1-1.2-7.56,38.52,38.52,0,0,1,.52-6.15c.11-.63.23-1.22.35-1.76-.4-1.27-1-3.25-1.91-5.66-1.07-3-2-5.62-3.42-8.9-2.37-5.51-3.13-6-2.95-8A7.6,7.6,0,0,1,269.26,207.65Z"/><path class="cls-7" d="M275,186a6.23,6.23,0,0,1,.67,4.22,5.31,5.31,0,0,1-1.87,3.09,3.83,3.83,0,0,1-1.37.65,2.82,2.82,0,0,1-1.39.08c-1.65-.65-.72-7.43,1.31-9.35a1.43,1.43,0,0,1,1-.48C274.14,184.27,274.67,185.37,275,186Z"/><path class="cls-18" d="M263.21,215.59a13.12,13.12,0,0,0,16.4-2.26,11.43,11.43,0,0,1-1.52-2.32,11.92,11.92,0,0,1-1-7.18c.32-1.67.8-1.92.66-3.17a2.34,2.34,0,0,0,0-.26,13.39,13.39,0,0,0-1.23-3.15c-.47-.81-1.06-1.92-1.81-3.47a22.44,22.44,0,0,0-11.86,3.35,53.76,53.76,0,0,0,1.53,5.55c1,2.92,1.67,4.12,1.3,6a20.7,20.7,0,0,1-1.13,2.89A34.84,34.84,0,0,0,263.21,215.59Z"/><path id="_Path_" data-name="&lt;Path&gt;" class="cls-41" d="M275.13,188.51c0,.06-.11.14-.28.31a3.72,3.72,0,0,1-.35.31c0,.26.06.54.07.84a13.63,13.63,0,0,1,0,1.56A10.66,10.66,0,0,1,273,192a8.24,8.24,0,0,1-2.94.25,5.37,5.37,0,0,1-1.95-.51,4.34,4.34,0,0,1,3.06-8.07,3.67,3.67,0,0,1,2.1,1.5c.27.47.17.54.62,1.32a7.84,7.84,0,0,0,.45.73C274.86,188,275.23,188.23,275.13,188.51Z"/><path class="cls-41" d="M267.69,190.41a4.74,4.74,0,0,1,.72,4.33c.79.39,1.59.8,2.4,1.24,1.16.62,2.28,1.25,3.35,1.87l-1.7-3.15c0-.36-.09-.75-.11-1.17a13,13,0,0,1,0-1.45Z"/><path class="cls-41" d="M260.34,172.25l.43-3.23a12.75,12.75,0,0,0-.4-1.81c-.14-.45-.28-.82-.61-.94a.66.66,0,0,0-.35-.05.49.49,0,0,0-.18-.47.47.47,0,0,0-.51-.05.45.45,0,0,0-.22.44.52.52,0,0,0-.34,0c-.42.2-.47,1.14-.16,2.34-.43-.51-.93-.74-1.23-.59a.41.41,0,0,0-.19.2l.94,1.37a3.73,3.73,0,0,0,.27,1,3.66,3.66,0,0,0,1.1,1.4Z"/><path class="cls-7" d="M272.14,187.6c-.37.59-.63.35-1,.88-.76,1.11.28,2.27-.42,3.3-.34.49-.77.23-1,.7-.39.69.44,1.3.3,2.42a2.63,2.63,0,0,1-1.49,2c-.91.38-1.42-.25-2.09.1-1,.51-.33,2.11-1.2,3.22-1.15,1.47-4.19,1.95-6.39.59a5.84,5.84,0,0,1-2.39-5.71,6.5,6.5,0,0,1,2.43-4.16c1.26-1,2.12-.77,3.28-2a6.32,6.32,0,0,0,1.44-2.33,8.33,8.33,0,0,1,2.4-3.21,6.17,6.17,0,0,1,3.81-1c.87,0,2.52,0,3.21,1.08a1.85,1.85,0,0,1,.28,1.5c-.08.22-.17.26-.35.5C272.32,186.24,272.61,186.84,272.14,187.6Z"/><path class="cls-18" d="M268.7,198.6,264.14,186q-1.81-7.42-3.64-14.84l-2.26.38a126.52,126.52,0,0,0,5.66,30Z"/><path class="cls-18" d="M264.63,184.62a4.56,4.56,0,0,1,9.12,0Z"/><path class="cls-18" d="M269.06,182.72h6.26a1.9,1.9,0,0,1,1.9,1.9v0a0,0,0,0,1,0,0h-8.16a0,0,0,0,1,0,0v-1.9A0,0,0,0,1,269.06,182.72Z"/><path class="cls-42" d="M38.67,253.22h118a0,0,0,0,1,0,0v11.87a2.31,2.31,0,0,1-2.31,2.31H38.67a0,0,0,0,1,0,0V253.22a0,0,0,0,1,0,0Z"/><path class="cls-4" d="M15.56,253.22h35.2a0,0,0,0,1,0,0V267.4a0,0,0,0,1,0,0H17.87a2.31,2.31,0,0,1-2.31-2.31V253.22A0,0,0,0,1,15.56,253.22Z"/><circle class="cls-16" cx="64.77" cy="267.4" r="8.68"/><circle class="cls-16" cx="143.95" cy="267.4" r="8.68"/><circle class="cls-23" cx="64.77" cy="267.4" r="4.19"/><circle class="cls-23" cx="143.95" cy="267.4" r="4.19"/><polygon class="cls-27" points="177.09 228.98 175.08 230.53 172.45 234.27 173.63 234.27 175.69 233.08 178.12 232.02 178.94 228.98 177.09 228.98"/><path class="cls-7" d="M196.64,204.47l-13.36,9.62a4.61,4.61,0,0,0-1.58,2l-5.6,13.36,3.11,1.79,7.51-12.63,10.1-4.79Z"/><path id="_Clipping_Path_12" data-name=" Clipping Path 12" class="cls-43" d="M188.18,278.83l-8.41-.52.34-5.32,2.69.86a3.58,3.58,0,0,0,1.33,2.3c1.18.84,2.55.33,3.46,1.33A2.43,2.43,0,0,1,188.18,278.83Z"/><path id="_Clipping_Path_13" data-name=" Clipping Path 13" class="cls-43" d="M219.2,271.38l-9.31-.52.33-5.92,3,.3c.21,2,.9,2.81,1.48,3.2,1.26.9,2.83.32,3.85,1.46A2.6,2.6,0,0,1,219.2,271.38Z"/><path class="cls-27" d="M204.77,206.24a6.45,6.45,0,0,1-6.2-.82,10.47,10.47,0,0,0,2.1-6l5.21.66Z"/><path class="cls-27" d="M209,195.1c.12.76.29,1.58.5,2.45s.42,1.53.64,2.21l-1.16.17-.52,3.12a8.24,8.24,0,0,1-3.53.31c-1.13-.08-2.28-.15-2.87-1a4.45,4.45,0,0,1-.43-.91,4,4,0,0,0-.26-.56c-.11-.23-.28-.55-.5-.94a2.78,2.78,0,0,0,1.27.22,1.58,1.58,0,0,0,1.18-.38,2.71,2.71,0,0,1-1.11-1.55,3.07,3.07,0,0,1,1.76-3.21c.22-.1.54-.22,3.61-.06Z"/><path class="cls-44" d="M191.51,224.66c-.77,1.53-1.43,3.15-2.1,4.86a73,73,0,0,0-4.58,19.75c-.88,2.28-1.72,4.72-2.52,7.29a107.38,107.38,0,0,0-3.73,17.2l4.46.83,7.51-23.32c.41-1,1-2.38,1.72-4.11,5.19-12.58,5.65-14.8,4.9-17C196.72,228.87,195.52,226.61,191.51,224.66Z"/><path class="cls-44" d="M200.48,225.05a3.11,3.11,0,0,1,.52,0c1.36.21,3.67,1.42,9,8.09,1.49,1.87,3.38,4.38,5.42,7.48a3,3,0,0,1,.49,1.83q-.27,5-.77,10.27c-.43,4.5-1,8.82-1.55,12.95a5.88,5.88,0,0,1-2.56.67,6,6,0,0,1-3.25-.86,52.3,52.3,0,0,0,.43-5.84c.06-3.45-.25-5.19-.36-8.61a68,68,0,0,1,.19-8c-4.23-1.43-7.78-2.76-10.49-3.8-5.18-2-6.54-2.72-7.41-4.21-1.95-3.32.1-7.78.84-9.24,4,.8,5.78.49,6.64,0A5.59,5.59,0,0,1,200.48,225.05Z"/><path class="cls-18" d="M194.82,207.44a5,5,0,0,1,5.54-3.9l7.26,1q.76,5.28,1.52,10.55-1.71,6.72-3.43,13.42l-5.39.78a13.8,13.8,0,0,1-10-2.42l-.81-.57,4.7-16Z"/><polygon class="cls-27" points="225.19 230.62 226.24 232.45 227.02 233.1 226.86 234.9 227.62 235.33 228.44 234.46 228.44 235.52 229.19 235.52 230.37 232.54 228.99 230.15 226.4 228.36 225.19 230.62"/><path class="cls-18" d="M203.21,205.09l6.89,15.3a8.49,8.49,0,0,0,3.23,3.71l11.88,7.47,2.39-2.69-11.87-9.81a47.79,47.79,0,0,1-2.22-6.94c-.6-2.57-.67-3.92-1.92-5.33a7.19,7.19,0,0,0-8.38-1.71Z"/><path class="cls-44" d="M200.48,201.12l2.61,0a1.35,1.35,0,0,0,.92-.64c.26-.61-.48-1.1-.43-2s.92-1.9,1.4-1.79c.12,0,.34.16.5.83l1,0a3.08,3.08,0,0,1,1.41-1.93c1-.5,1.74-.06,2.41-.53.46-.33.88-1.15.57-3.3-.91-.05-2.12-.11-3.55-.16-4.43-.16-5.06,0-5.71.38a4.75,4.75,0,0,0-2.12,4.23c.14,1,.76,1.56,1,3.28A7.56,7.56,0,0,1,200.48,201.12Z"/><line class="cls-45" x1="171.41" y1="234.27" x2="179.98" y2="234.27"/><path class="cls-18" d="M199.63,197.05a4.56,4.56,0,1,1,7.79-4.73Z"/><path class="cls-18" d="M202.33,190.88h6.26a1.9,1.9,0,0,1,1.9,1.9v0a0,0,0,0,1,0,0h-8.16a0,0,0,0,1,0,0v-1.9A0,0,0,0,1,202.33,190.88Z" transform="translate(-69.57 134.91) rotate(-31.25)"/><rect id="_Rectangle_5" data-name="&lt;Rectangle&gt;" class="cls-40" x="303.04" y="72.42" width="21.97" height="25.57"/><rect class="cls-40" x="299.85" y="69.1" width="6.39" height="3.33"/><rect class="cls-40" x="287.79" y="69.1" width="6.39" height="3.33"/><rect class="cls-40" x="311.9" y="69.1" width="6.39" height="3.33"/><rect id="_Rectangle_6" data-name="&lt;Rectangle&gt;" class="cls-46" x="281.07" y="72.42" width="21.97" height="25.57"/><rect class="cls-33" x="310.89" y="88" width="6.58" height="10"/><rect class="cls-29" x="288.76" y="88" width="6.58" height="10"/><rect class="cls-32" x="485.28" y="171.09" width="3.93" height="82.58"/></g></g></svg>