<svg xmlns="http://www.w3.org/2000/svg" viewBox="0 0 36 31"><defs><style>.cls-1,.cls-2{fill:#243858;}.cls-2{opacity:0.5;}</style></defs><title>organize-move</title><g id="Layer_2" data-name="Layer 2"><g id="N700"><rect class="cls-1" width="30" height="8" rx="1" ry="1"/><rect class="cls-1" y="23" width="30" height="8" rx="1" ry="1"/><path class="cls-2" d="M26.4,14.5H30v-2a1,1,0,0,0-1-1H1a1,1,0,0,0-1,1v6a1,1,0,0,0,1,1H21.4A5,5,0,0,1,26.4,14.5Z"/><path class="cls-2" d="M23.4,19.5H29a1,1,0,0,0,1-1v-2H26.4A3,3,0,0,0,23.4,19.5Z"/><path class="cls-1" d="M33.05,12.32a1,1,0,0,0-1.47,1.36l.76.82H26.4a5,5,0,0,0-5,5h2a3,3,0,0,1,3-3h5.95l-.76.82a1,1,0,0,0,1.47,1.36L36,15.5Z"/></g></g></svg>