<svg xmlns="http://www.w3.org/2000/svg" viewBox="0 0 36.08 36.08"><defs><style>.cls-1{fill:#243858;}</style></defs><title>finance-dollar</title><g id="Layer_2" data-name="Layer 2"><g id="N700"><path class="cls-1" d="M18,0a18,18,0,1,0,18,18A18,18,0,0,0,18,0Zm.74,17a4.59,4.59,0,0,1,1,9.07v1.51a1,1,0,0,1-2,0V26.11a4.6,4.6,0,0,1-3.59-4.48,1,1,0,0,1,2,0A2.59,2.59,0,1,0,18.78,19a4.59,4.59,0,0,1-1-9.07V8.46a1,1,0,0,1,2,0V10a4.6,4.6,0,0,1,3.59,4.48,1,1,0,0,1-2,0A2.59,2.59,0,1,0,18.78,17Z"/></g></g></svg>