<svg xmlns="http://www.w3.org/2000/svg" viewBox="0 0 36 36"><defs><style>.cls-1,.cls-2{fill:#243858;}.cls-1{opacity:0.5;}</style></defs><title>organize-node</title><g id="Layer_2" data-name="Layer 2"><g id="N700"><path class="cls-1" d="M33.37,23.07,19.78,17.63,33.71,3.71a1,1,0,0,0-1.41-1.41L17.92,16.67,4.62,6.21A1,1,0,1,0,3.38,7.79L16.5,18.09,3.29,31.29a1,1,0,1,0,1.41,1.41L17.15,20.27,18,33.07A1,1,0,0,0,19,34h.07A1,1,0,0,0,20,32.93L19.1,19.52l13.53,5.41a1,1,0,1,0,.74-1.86Z"/><circle class="cls-2" cx="18" cy="18" r="6"/><circle class="cls-2" cx="33" cy="24" r="3"/><circle class="cls-2" cx="4" cy="32" r="4"/><circle class="cls-2" cx="32.5" cy="3.5" r="3.5"/><circle class="cls-2" cx="19" cy="33" r="3"/><circle class="cls-2" cx="4" cy="7" r="4"/></g></g></svg>