<svg xmlns="http://www.w3.org/2000/svg" viewBox="0 0 28.8 36"><defs><style>.cls-1,.cls-2{fill:#243858;}.cls-2{opacity:0.5;}</style></defs><title>content-page multi</title><g id="Layer_2" data-name="Layer 2"><g id="N700"><polygon class="cls-1" points="8.1 0 0 0 0 16.2 12.6 16.2 12.6 4.5 8.1 4.5 8.1 0"/><polygon class="cls-1" points="8.1 19.8 0 19.8 0 36 12.6 36 12.6 24.3 8.1 24.3 8.1 19.8"/><polygon class="cls-1" points="24.3 0 16.2 0 16.2 16.2 28.8 16.2 28.8 4.5 24.3 4.5 24.3 0"/><polygon class="cls-1" points="24.3 19.8 16.2 19.8 16.2 36 28.8 36 28.8 24.3 24.3 24.3 24.3 19.8"/><polygon class="cls-2" points="8.1 4.5 12.6 4.5 8.1 0 8.1 4.5"/><polygon class="cls-2" points="8.1 24.3 12.6 24.3 8.1 19.8 8.1 24.3"/><polygon class="cls-2" points="24.3 0 24.3 4.5 28.8 4.5 24.3 0"/><polygon class="cls-2" points="24.3 24.3 28.8 24.3 24.3 19.8 24.3 24.3"/></g></g></svg>