<svg xmlns="http://www.w3.org/2000/svg" viewBox="0 0 36 22.74"><defs><style>.cls-1{fill:#243858;}</style></defs><title>organize-agile</title><g id="Layer_2" data-name="Layer 2"><g id="N700"><path class="cls-1" d="M8.95,16.55H1.1a1.13,1.13,0,0,0,0,2.26H11.45A10.32,10.32,0,0,1,8.95,16.55Z"/><path class="cls-1" d="M30.95,12.64l-1.61,1.61,2.3,2.3H17.19a7.15,7.15,0,1,1,4.31-1.32h3.27a9.42,9.42,0,1,0-13.55,1.32h0a8.56,8.56,0,0,0,5.15,2.24c.21,0,.43,0,.65,0H31.64l-2.3,2.3,1.61,1.61L36,17.69Z"/></g></g></svg>