<?xml version="1.0" encoding="utf-8"?>
<!-- Generator: Adobe Illustrator 24.1.2, SVG Export Plug-In . SVG Version: 6.00 Build 0)  -->
<svg version="1.1" id="Layer_1" xmlns="http://www.w3.org/2000/svg" xmlns:xlink="http://www.w3.org/1999/xlink" x="0px" y="0px"
	 viewBox="0 0 600.5 314.8" style="enable-background:new 0 0 600.5 314.8;" xml:space="preserve">
<style type="text/css">
	.st0{opacity:0.1;fill:#0C1F42;}
	.st1{opacity:0.66;}
	.st2{fill:#E8F6FB;}
	.st3{fill:#BCE5F1;}
	.st4{opacity:0.5;fill:#BCE5F1;}
	.st5{fill:#97A0AF;}
	.st6{fill:#E0E2E5;}
	.st7{fill:#F4F5F7;}
	.st8{fill:url(#SVGID_1_);}
	.st9{fill:url(#SVGID_2_);}
	.st10{fill:url(#SVGID_3_);}
	.st11{fill:url(#SVGID_4_);}
	.st12{fill:#4169B2;}
	.st13{fill:#325BA9;}
	.st14{fill:#4068B2;}
	.st15{fill:url(#SVGID_5_);}
	.st16{fill:#2BC2E1;}
	.st17{fill:url(#SVGID_6_);}
	.st18{fill:url(#SVGID_7_);}
	.st19{fill:#02A3BF;}
	.st20{fill:#00B8D9;}
	.st21{fill:#6D7A90;}
	.st22{fill:#152C4C;}
	.st23{fill:none;}
	.st24{fill:#8C715E;}
	.st25{fill:#27385C;}
	.st26{fill:#172B4D;}
	.st27{fill:url(#SVGID_8_);}
	.st28{fill:#354664;}
	.st29{fill:#F89924;}
	.st30{fill:none;stroke:#4B7BBE;stroke-width:1.4463;stroke-miterlimit:10;}
	.st31{fill:#FFC50F;}
	.st32{fill:#F89925;}
	.st33{clip-path:url(#SVGID_10_);fill:none;stroke:#4169B2;stroke-width:1.4944;stroke-miterlimit:10;}
	.st34{fill:none;stroke:#4169B2;stroke-width:1.4944;stroke-miterlimit:10;}
	.st35{fill:none;stroke:#4169B2;stroke-width:1.4463;stroke-miterlimit:10;}
	.st36{opacity:0.9;fill:url(#SVGID_11_);}
	.st37{opacity:0.16;fill:#048EA7;}
	.st38{opacity:0.32;fill:#048EA7;}
	.st39{opacity:0.48;fill:#048EA7;}
	.st40{opacity:0.64;fill:#048EA7;}
	.st41{opacity:0.8;fill:#048EA7;}
	.st42{fill:#048EA7;}
	.st43{fill:#88D4E7;}
	.st44{fill:#FEE381;}
	.st45{fill:#253959;}
	.st46{fill:#43536F;}
	.st47{fill:#F68C1F;}
	.st48{fill:#FAFCFE;}
	.st49{opacity:0.56;fill:#048EA7;}
	.st50{opacity:0.66;fill:#048EA7;}
	.st51{opacity:0.5;}
	.st52{fill:url(#SVGID_12_);}
	.st53{fill:url(#SVGID_13_);}
	.st54{fill:url(#SVGID_14_);}
	.st55{fill:#5F6D85;}
	.st56{fill:#7B869A;}
	.st57{fill:#FBAA19;}
	.st58{fill:#EBEBEF;}
	.st59{fill:#51607A;}
	.st60{fill:#735A4C;}
	.st61{fill:#F1DAD5;}
	.st62{fill:url(#SVGID_15_);}
	.st63{fill:url(#SVGID_16_);}
	.st64{clip-path:url(#SVGID_18_);}
	.st65{fill:none;stroke:#02A3BF;stroke-width:0.4803;stroke-miterlimit:10;}
	.st66{fill:#EBC19C;}
	.st67{fill:#253858;}
	.st68{fill:url(#XMLID_2_);}
	.st69{fill:url(#XMLID_3_);}
	.st70{opacity:0.49;fill:#253959;}
	.st71{fill:#0C1F42;}
	.st72{fill:#CFA38C;}
	.st73{fill:url(#SVGID_19_);}
	.st74{fill:url(#SVGID_20_);}
	.st75{fill:#B68D7B;}
	.st76{fill:url(#SVGID_21_);}
	.st77{fill:none;stroke:#97A0AF;stroke-width:1.6248;stroke-miterlimit:10;}
	.st78{fill:#DABCAB;}
	.st79{fill:#204FA2;}
	.st80{fill:#4B7BBE;}
	.st81{fill:#F89925;stroke:#FBAA19;stroke-width:0.8124;stroke-miterlimit:10;}
	.st82{fill:url(#SVGID_22_);}
	.st83{opacity:0.8;fill:url(#SVGID_23_);}
	.st84{fill:url(#SVGID_24_);}
	.st85{fill:#FFFFFF;}
	.st86{fill:none;stroke:#88D4E7;stroke-width:1.157;stroke-miterlimit:10;}
	.st87{fill:#4B7BBE;stroke:#4B7BBE;stroke-width:0.5785;stroke-miterlimit:10;}
	
		.st88{fill:none;stroke:#FFC50F;stroke-width:1.6151;stroke-linecap:round;stroke-linejoin:round;stroke-miterlimit:10;stroke-dasharray:6.4604;}
	
		.st89{fill:none;stroke:#FFC50F;stroke-width:1.5904;stroke-linecap:round;stroke-linejoin:round;stroke-miterlimit:10;stroke-dasharray:6.3617;}
	.st90{fill:none;stroke:#BCE5F1;stroke-width:1.0388;stroke-miterlimit:10;}
	.st91{opacity:0.3;fill:#88D4E7;}
</style>
<g>
	<ellipse class="st0" cx="278.3" cy="300.1" rx="19.2" ry="3.3"/>
	<g class="st1">
		<path class="st2" d="M164.2,292.6H102v-117c0-17.2,13.9-31.1,31.1-31.1h0c17.2,0,31.1,13.9,31.1,31.1V292.6z"/>
		<path class="st3" d="M236.8,292.6h-62.3v-117c0-17.2,13.9-31.1,31.1-31.1h0c17.2,0,31.1,13.9,31.1,31.1V292.6z"/>
		<path class="st3" d="M309.4,292.6h-62.3v-117c0-17.2,13.9-31.1,31.1-31.1h0c17.2,0,31.1,13.9,31.1,31.1V292.6z"/>
		<path class="st3" d="M381.9,292.6h-62.3v-117c0-17.2,13.9-31.1,31.1-31.1h0c17.2,0,31.1,13.9,31.1,31.1V292.6z"/>
		<path class="st3" d="M454.5,292.6h-62.3v-117c0-17.2,13.9-31.1,31.1-31.1h0c17.2,0,31.1,13.9,31.1,31.1V292.6z"/>
	</g>
	<path class="st4" d="M429.1,47.8c0.1,2.9-2.4,5.4-5.4,5.4h-34.2c2.9,0,5.3-2.4,5.3-5.3c0-2.9,2.4-5.3,5.3-5.3c0.1,0,0.2,0,0.3,0
		c1.9,0.1,3.7-0.8,4.7-2.4c1.5-2.2,4-3.7,6.9-3.7c4.3,0,7.9,3.3,8.3,7.5c0.9-0.9,2.2-1.4,3.6-1.4C426.7,42.6,429.1,44.9,429.1,47.8z
		"/>
	<path class="st2" d="M499.2,281.5c0.1-5.9,4.9-10.7,10.9-10.7c0.3,0,0.6,0,0.9,0c3.6,0.3,7.2-1.5,9.1-4.6c1.7-2.7,4.2-4.9,7.1-6.3
		v-84.5c0-17.2-13.9-31.1-31.1-31.1h0c-17.2,0-31.1,13.9-31.1,31.1v117h44.9C503.9,292.2,499.1,287.4,499.2,281.5z"/>
	<g>
		<path class="st5" d="M332.2,234.8L332.2,234.8c-10.1,0-18.2,8.2-18.2,18.2v39.5h-8.3V253c0-10.1-8.2-18.2-18.2-18.2l0,0H332.2z"/>
		<path class="st6" d="M242.7,174.1L242.7,174.1c-10.1,0-18.2,8.2-18.2,18.2v100.4h-8.3V192.3c0-10.1-8.2-18.2-18.2-18.2h0H242.7z"
			/>
		<path class="st7" d="M152.7,174L152.7,174c-10.1,0-18.2,8.2-18.2,18.2v100.3h-8.3l0-100.3c0-10.1-8.2-18.2-18.2-18.2h0H152.7z"/>
		
			<linearGradient id="SVGID_1_" gradientUnits="userSpaceOnUse" x1="-8444.5234" y1="180.4904" x2="-8216.4717" y2="180.4904" gradientTransform="matrix(-1 0 0 1 -8153.2764 0)">
			<stop  offset="0" style="stop-color:#C1C6CF"/>
			<stop  offset="1" style="stop-color:#FFFFFF"/>
		</linearGradient>
		<path class="st8" d="M291.1,166.2l0.2,28.7c-0.7-2.7-2.3-9.6-6-14.2c-4.4-5.4-8.8-6.2-10.6-6.4l-211.4-0.5c0-2.6,0-5.2,0-7.8
			L291.1,166.2z"/>
		<path class="st5" d="M196.9,234.8L196.9,234.8c-10.1,0-18.2,8.2-18.2,18.2v39.5h-8.3V253c0-10.1-8.2-18.2-18.2-18.2h0H196.9z"/>
		<g>
			<linearGradient id="SVGID_2_" gradientUnits="userSpaceOnUse" x1="258.4763" y1="238.1945" x2="359.1413" y2="126.24">
				<stop  offset="0" style="stop-color:#C1C6CF"/>
				<stop  offset="0.5074" style="stop-color:#8993A3"/>
				<stop  offset="1" style="stop-color:#51607A"/>
			</linearGradient>
			<path class="st9" d="M291.3,182.3h76.8c-1.4-2.7-3.3-5.1-5.4-7.3c-5.6-5.5-13.3-9-21.9-9h-76.8c8.5,0,16.3,3.4,21.9,9
				C288,177.2,289.8,179.6,291.3,182.3z"/>
			<linearGradient id="SVGID_3_" gradientUnits="userSpaceOnUse" x1="53.2413" y1="222.2496" x2="368.9843" y2="222.2496">
				<stop  offset="0" style="stop-color:#F4F5F7;stop-opacity:0"/>
				<stop  offset="4.025186e-02" style="stop-color:#E8E9EC;stop-opacity:8.164442e-02"/>
				<stop  offset="0.1619" style="stop-color:#CACED5;stop-opacity:0.3283"/>
				<stop  offset="0.2802" style="stop-color:#B6BCC6;stop-opacity:0.5683"/>
				<stop  offset="0.3927" style="stop-color:#AAB1BD;stop-opacity:0.7964"/>
				<stop  offset="0.493" style="stop-color:#A6AEBA"/>
				<stop  offset="1" style="stop-color:#C1C6CF"/>
			</linearGradient>
			<path class="st10" d="M369,209.2h-27l-9.2,17.9l-278.6,0.1c0,0-2.4,8.2,0.2,8l293.5-0.5c9.1,0,17.1-5.9,21-14.4V209.2z"/>
			<linearGradient id="SVGID_4_" gradientUnits="userSpaceOnUse" x1="281.127" y1="258.5611" x2="381.792" y2="146.6066">
				<stop  offset="0" style="stop-color:#C1C6CF"/>
				<stop  offset="0.5074" style="stop-color:#8993A3"/>
				<stop  offset="1" style="stop-color:#51607A"/>
			</linearGradient>
			<path class="st11" d="M292.1,209.2c-4.8,10.6-15.6,18-28.2,18h76.8c12.6,0,23.4-7.4,28.2-18H292.1z"/>
		</g>
	</g>
	<g>
		<g>
			<g>
				<g>
					<path class="st12" d="M239.5,213.3l-9.4-9.4c-0.6-0.6-1.5-0.2-1.5,0.6l0,4.3l-23.7,0l0,10.2l23.7,0l0,4.3c0,0.8,1,1.2,1.5,0.6
						l9.4-9.4C239.8,214.2,239.8,213.7,239.5,213.3z"/>
					<path class="st13" d="M211.4,208.9c-1.6,1.1-3.6,1.7-5.7,1.7l0,8.6l8.2,0c4.7-2,8.4-5.7,10.6-10.3L211.4,208.9z"/>
				</g>
				<g>
					<path class="st14" d="M204.9,219.1l0-10.2c5.8,0,10.5-4.7,10.5-10.5c0-5.8-4.7-10.5-10.5-10.5c-5.8,0-10.5,4.7-10.5,10.5
						l-10.2,0c0-11.4,9.3-20.8,20.7-20.8c11.4,0,20.8,9.3,20.8,20.7C225.6,209.8,216.3,219.1,204.9,219.1z"/>
				</g>
				<g>
					
						<linearGradient id="SVGID_5_" gradientUnits="userSpaceOnUse" x1="332.0815" y1="-426.4033" x2="346.3174" y2="-426.4033" gradientTransform="matrix(0.9942 0.1074 -0.1074 0.9942 -204.2599 581.4991)">
						<stop  offset="0" style="stop-color:#253959"/>
						<stop  offset="1" style="stop-color:#172B4D"/>
					</linearGradient>
					<path class="st15" d="M185.3,196.6c-2.2-0.1-4.5-0.2-6.7-0.2c-0.5-1.6-1-3.2-1.5-4.8c-0.4-1.2-1.1-2.3-2.3-3
						c-0.6-0.3-1.2-0.5-1.8-0.2c-0.4,0.2-0.7,0.5-0.8,0.9c-0.1,0.4-0.2,0.8-0.1,1.2c0.2,1.9,1.1,3.5,2.2,5c0.9,1.4,1.9,2.5,2.8,3.4
						c2.8,0.4,5.7,0,8.5-0.5L185.3,196.6z"/>
					<path class="st16" d="M225.6,198.4c0-11.4-9.3-20.7-20.8-20.7c-10.7,0-19.5,8.2-20.6,18.6l-3.5-0.3c-0.7-0.1-1.1,0.8-0.7,1.3
						l7.9,9.5c0.3,0.3,0.8,0.4,0.9,0.1l9.5-7.9c0.8-0.5,0.5-1.3-0.2-1.4l-3.7-0.3c0.6-5.2,5-9.3,10.4-9.3c5.8,0,10.5,4.7,10.5,10.5
						c0,5.8-4.7,10.5-10.5,10.5l0.4,0l0,10.2C216.5,218.9,225.6,209.7,225.6,198.4z"/>
					
						<linearGradient id="SVGID_6_" gradientUnits="userSpaceOnUse" x1="1052.7299" y1="300.6528" x2="1079.7593" y2="300.6528" gradientTransform="matrix(1 -1.773296e-03 1.773296e-03 1 -875.0001 -79.6019)">
						<stop  offset="0" style="stop-color:#9FBEE4;stop-opacity:0"/>
						<stop  offset="5.821848e-02" style="stop-color:#85A4D5;stop-opacity:5.821848e-02"/>
						<stop  offset="0.1258" style="stop-color:#708FC9;stop-opacity:0.1258"/>
						<stop  offset="0.2034" style="stop-color:#5F7FC0;stop-opacity:0.2034"/>
						<stop  offset="0.2942" style="stop-color:#5274B9;stop-opacity:0.2942"/>
						<stop  offset="0.4063" style="stop-color:#486DB5;stop-opacity:0.4063"/>
						<stop  offset="0.5636" style="stop-color:#4269B2;stop-opacity:0.5636"/>
						<stop  offset="1" style="stop-color:#4068B2"/>
					</linearGradient>
					<path class="st17" d="M205.3,219.1L205.3,219.1c-0.1,0-0.3,0-0.4,0L205.3,219.1z"/>
					
						<linearGradient id="SVGID_7_" gradientUnits="userSpaceOnUse" x1="363.5722" y1="295.5364" x2="390.6017" y2="295.5364" gradientTransform="matrix(1.1293 -2.002693e-03 1.773237e-03 1 -236.3013 -80.735)">
						<stop  offset="0" style="stop-color:#BCE5F1;stop-opacity:0"/>
						<stop  offset="4.043806e-02" style="stop-color:#A7DEEE;stop-opacity:4.043806e-02"/>
						<stop  offset="0.1093" style="stop-color:#89D4EA;stop-opacity:0.1093"/>
						<stop  offset="0.1884" style="stop-color:#6ECDE6;stop-opacity:0.1884"/>
						<stop  offset="0.2809" style="stop-color:#56C8E4;stop-opacity:0.2809"/>
						<stop  offset="0.3951" style="stop-color:#41C5E2;stop-opacity:0.3951"/>
						<stop  offset="0.5554" style="stop-color:#31C3E1;stop-opacity:0.5554"/>
						<stop  offset="1" style="stop-color:#2BC2E1"/>
					</linearGradient>
					<polygon class="st18" points="174.8,209 174.8,219.2 204.9,219.1 204.9,208.9 					"/>
					<path class="st16" d="M204.8,208.9l0,10.2c0.2,0,0.3,0,0.5,0l0-10.2L204.8,208.9z"/>
				</g>
			</g>
			
				<rect x="169" y="219" transform="matrix(-1 4.480137e-11 -4.480137e-11 -1 352.7076 440.7859)" class="st19" width="14.6" height="2.8"/>
			
				<rect x="183.7" y="219" transform="matrix(-1 4.500566e-11 -4.500566e-11 -1 410.4083 440.7859)" class="st20" width="43.1" height="2.8"/>
			<circle class="st21" cx="222.9" cy="224.6" r="2.8"/>
			<circle class="st21" cx="187.9" cy="224.6" r="2.8"/>
			<circle class="st21" cx="208.2" cy="224.6" r="2.8"/>
			<circle class="st21" cx="173.2" cy="224.6" r="2.8"/>
			<g>
				<g>
					<path id="_Clipping_Path_12_5_" class="st22" d="M164.2,226.4l-4.2-1l0.6-2.7l1.3,0.7c0,0.5,0.2,0.9,0.5,1.3
						c0.5,0.5,1.3,0.4,1.6,1C164.2,225.8,164.3,226.1,164.2,226.4z"/>
					<path class="st23" d="M164.2,226.4l-4.2-1l0.6-2.7l1.3,0.7c0,0.5,0.2,0.9,0.5,1.3c0.5,0.5,1.3,0.4,1.6,1
						C164.2,225.8,164.3,226.1,164.2,226.4z"/>
					<path id="_Clipping_Path_13_5_" class="st22" d="M182.8,227.6l-5-0.1l0-3.1l1.6,0.1c0.2,1,0.5,1.5,0.9,1.7
						c0.7,0.4,1.5,0.1,2.1,0.7C182.7,227.1,182.8,227.4,182.8,227.6z"/>
					<path class="st23" d="M182.8,227.6l-5-0.1l0-3.1l1.6,0.1c0.2,1,0.5,1.5,0.9,1.7c0.7,0.4,1.5,0.1,2.1,0.7
						C182.7,227.1,182.8,227.4,182.8,227.6z"/>
					<path class="st24" d="M175.7,189.6c-1.1,0.4-2.4,0.1-3.3-0.6c0.7-0.9,1.2-2,1.3-3.1l2.7,0.5L175.7,189.6z"/>
					<path class="st25" d="M174.5,186.8c-0.4-0.3-0.7-0.7-0.9-1.1c-0.5-1.3,0.1-2.8,1.4-3.4c0.7-0.3,1.6-0.2,2.3,0.2
						c0.4-0.2,1,0,1.2,0.4c0.2,0.3,0.1,0.7-0.1,1c0,0.1,0,0.2,0,0.3c-0.2,0.9-0.7,1.7-1.4,2.3L174.5,186.8z"/>
					<path class="st24" d="M178.3,183.8c0,0.3,0,0.6,0.1,0.9c0,0.2,0.1,0.4,0.1,0.4c0.1,0.4,0.2,0.7,0.4,1l-0.5,0.1l-0.4,1.6
						c-0.7,0.2-1.4,0.3-2.1,0.2c-0.6-0.1-1.2-0.1-1.5-0.6c-0.1-0.2-0.2-0.3-0.2-0.5c0-0.1-0.1-0.2-0.1-0.3c-0.1-0.1-0.1-0.3-0.2-0.5
						c0.2,0.1,0.4,0.2,0.7,0.2c0.2,0,0.5,0,0.6-0.2c0.2-0.3,0-0.7,0.3-0.8c0.1-0.1,0.2,0,0.3,0c0.3,0.2,0.2,0.8,0.2,0.8l0.5,0
						c0-0.3,0.1-0.6,0.2-0.8c0.2-0.4,0.5-0.4,0.6-0.8c0.2-0.4,0-0.6,0.2-0.7C177.5,183.6,177.7,183.6,178.3,183.8z"/>
					<path class="st26" d="M168.3,198.5c-0.4,0.8-0.8,1.6-1.2,2.4c-1.4,3.2-2.4,6.6-2.9,10c-0.5,1.1-1,2.4-1.5,3.7
						c-1,2.8-1.8,5.8-2.4,8.7l2.3,0.6l4.5-11.8c0.2-0.5,0.6-1.2,1-2.1c3-6.3,3.3-7.4,3-8.6C170.8,200.8,170.3,199.6,168.3,198.5z"/>
					
						<linearGradient id="SVGID_8_" gradientUnits="userSpaceOnUse" x1="7011.2939" y1="-114.1993" x2="7011.2939" y2="-139.6172" gradientTransform="matrix(0.9985 5.485296e-02 -5.485296e-02 0.9985 -6834.0508 -45.8531)">
						<stop  offset="0" style="stop-color:#253959"/>
						<stop  offset="1" style="stop-color:#172B4D"/>
					</linearGradient>
					<path class="st27" d="M174.1,200.4c1.5,3.9,2.8,7.8,3.9,11.9c1.1,4.2,1.9,8.4,2.4,12.7l-2.7,0c-0.4-1.7-0.8-3.5-1.3-5.4
						c-0.7-2.5-1.4-4.9-2.1-7.1c-3.8-3.7-6.3-6.9-7-8.4c-0.3-0.6-0.8-1.6-0.4-2.6c0.1-0.2,0.2-0.4,0.5-1c0.3-0.6,0.5-1.1,0.7-1.4
						C170,199.7,172,200.2,174.1,200.4L174.1,200.4z"/>
					<path class="st24" d="M190,187.5c-0.2,0.1-0.4,0-0.6-0.2c-0.3-0.3-0.4-0.7-0.3-1.1c0.1-0.4,0.2-0.7,0.3-1.1
						c0.1-0.3,0.2-0.6,0.3-0.9c0.1-0.2,0.1-0.6,0.2-0.8c0.2-0.3,0.5-0.1,0.6,0.2c0.1,0.3,0,0.8,0.4,0.9c0.4,0,0.8-0.3,1.1-0.4
						c0.1-0.1,0.3-0.2,0.5-0.1c0.2,0.1,0.1,0.2,0.2,0.3c0.1,0.1,0.3,0.1,0.4,0.3c0.1,0.1,0,0.3,0,0.4c0.1,0.2,0.2,0.4,0.1,0.7
						c-0.3,0.5-1.1,0.8-1.5,1.1c-0.4,0.3-0.9,0.4-1.3,0.7C190.2,187.4,190.1,187.4,190,187.5z"/>
					<path class="st28" d="M170.4,189.9c0.4-1.3,1.7-2.2,3.1-1.9l3.8,0.7c0.9,0.2,1.7,0.6,2.4,1.1c1.8,0.6,3.6,1.1,5.5,1.7
						c1.3-1.8,2.7-3.6,4-5.4l1.6,0.9c-1.5,2.4-3,4.8-4.4,7.3c-1.2,0.2-2.7,0.3-4.3,0.3c-1.6,0-3-0.2-4.1-0.3c-0.7,2.3-1.5,4.7-2.2,7
						l-2.9,0.3c-1.9,0.2-3.8-0.4-5.2-1.6l-0.4-0.3l3-8.4L170.4,189.9z"/>
				</g>
				<path class="st29" d="M178.1,182.2c-0.3,0.5-0.9,1.4-2,2.2c-1.2,0.8-2.3,1.1-2.9,1.2c-0.6-1.3-0.3-2.9,0.8-3.7
					C175.1,180.8,176.9,181,178.1,182.2z"/>
			</g>
		</g>
	</g>
	<g>
		<line class="st30" x1="338.6" y1="77.4" x2="461.3" y2="222.5"/>
		<path class="st31" d="M424.4,263.6l16-9.2l-104-173.8l-6.2-9.4l-4.9,2.8c-2.3,1.3-3.1,4.2-1.8,6.5l3.1,5.7L424.4,263.6z"/>
		<path class="st32" d="M428.3,261.4l16-9.2l-104-173.8l-3.3-5.6c-1.3-2.3-4.2-3-6.5-1.8l-1.3,0.7c-2.3,1.3-3.1,4.1-1.9,6.4l3.1,5.8
			L428.3,261.4z"/>
		<circle class="st31" cx="387.2" cy="171.4" r="3.5"/>
		<circle class="st31" cx="334.8" cy="79.7" r="2.4"/>
		<g>
			<defs>
				
					<rect id="SVGID_9_" x="326.9" y="78.8" transform="matrix(0.8796 -0.4758 0.4758 0.8796 -0.3172 166.1163)" width="2.1" height="9.8"/>
			</defs>
			<use xlink:href="#SVGID_9_"  style="overflow:visible;fill:#F89925;"/>
			<clipPath id="SVGID_10_">
				<use xlink:href="#SVGID_9_"  style="overflow:visible;"/>
			</clipPath>
			<line class="st33" x1="327.8" y1="78.5" x2="327.8" y2="84.7"/>
		</g>
		<line class="st34" x1="327.8" y1="110.4" x2="327.8" y2="84"/>
	</g>
	<polyline class="st35" points="299.6,138.6 327.8,110.4 356,138.6 	"/>
	<linearGradient id="SVGID_11_" gradientUnits="userSpaceOnUse" x1="321.4352" y1="158.0074" x2="355.6904" y2="123.7522">
		<stop  offset="0" style="stop-color:#2BC2E1"/>
		<stop  offset="1" style="stop-color:#BCE5F1"/>
	</linearGradient>
	<path class="st36" d="M373.1,129.7c0.1,4-3.3,7.3-7.4,7.3H319c4,0,7.2-3.2,7.2-7.2c0-4,3.2-7.2,7.2-7.2c0.1,0,0.3,0,0.4,0
		c2.6,0.1,5-1.1,6.4-3.2c2-3.1,5.5-5.1,9.5-5.1c5.9,0,10.8,4.5,11.3,10.3c1.3-1.2,3-2,4.9-2C369.9,122.6,373.1,125.8,373.1,129.7z"
		/>
	<g>
		
			<rect x="321.9" y="107.1" transform="matrix(6.123234e-17 -1 1 6.123234e-17 184.2315 473.1374)" class="st19" width="13.6" height="74.6"/>
		<g class="st1">
			<circle class="st37" cx="298.9" cy="144.2" r="2.9"/>
			<circle class="st38" cx="310.4" cy="144.2" r="2.9"/>
			<circle class="st39" cx="321.8" cy="144.2" r="2.9"/>
			<circle class="st40" cx="333.2" cy="144.2" r="2.9"/>
			<circle class="st41" cx="344.7" cy="144.2" r="2.9"/>
			<circle class="st42" cx="356.1" cy="144.2" r="2.9"/>
		</g>
		<rect x="285.6" y="136.8" class="st20" width="72.5" height="2.3"/>
		<rect x="285.6" y="149.8" class="st20" width="72.5" height="2.3"/>
		
			<rect x="358.1" y="136.8" transform="matrix(-1 -1.224647e-16 1.224647e-16 -1 729.7329 275.8499)" class="st43" width="13.6" height="2.3"/>
		
			<rect x="358.1" y="143.3" transform="matrix(6.123234e-17 -1 1 6.123234e-17 220.4135 509.3194)" class="st43" width="13.6" height="2.3"/>
		
			<rect x="358.1" y="149.8" transform="matrix(-1 -1.224647e-16 1.224647e-16 -1 729.7329 301.8753)" class="st43" width="13.6" height="2.3"/>
	</g>
	<g>
		<polygon id="XMLID_170_" class="st44" points="202.3,288.2 214.9,283.8 214.8,292.6 		"/>
		<path class="st13" d="M286.5,288.3L286.5,288.3c0-2.4-2-4.4-4.4-4.4l-7.4,0l0,8.8l7.4,0C284.5,292.7,286.5,290.7,286.5,288.3z"/>
		
			<rect x="240.4" y="258.3" transform="matrix(-1.368280e-03 1 -1 -1.368280e-03 533.3249 43.8403)" class="st45" width="8.8" height="59.8"/>
		<polygon class="st46" points="206.8,289.8 202.3,288.2 206.8,286.6 		"/>
		
			<rect x="242.6" y="256.1" transform="matrix(-1.368280e-03 1 -1 -1.368280e-03 531.1205 41.6268)" class="st21" width="4.4" height="59.8"/>
	</g>
	<g>
		<polygon id="XMLID_169_" class="st44" points="205.2,279.5 217.8,275.1 217.8,283.9 		"/>
		<path class="st13" d="M289.4,279.5L289.4,279.5c0-2.4-2-4.4-4.4-4.4l-7.4,0l0,8.8l7.4,0C287.4,283.9,289.4,282,289.4,279.5z"/>
		
			<rect x="243.3" y="249.6" transform="matrix(-1.368280e-03 1 -1 -1.368280e-03 527.5485 32.1623)" class="st47" width="8.8" height="59.8"/>
		<polygon class="st46" points="209.7,281 205.2,279.5 209.7,277.9 		"/>
		
			<rect x="245.5" y="247.4" transform="matrix(-1.368280e-03 1 -1 -1.368280e-03 525.344 29.9488)" class="st31" width="4.4" height="59.8"/>
	</g>
	<g>
		<polygon id="XMLID_168_" class="st44" points="197.2,270.6 209.8,266.2 209.8,275.1 		"/>
		<path class="st13" d="M281.4,270.7L281.4,270.7c0-2.4-2-4.4-4.4-4.4l-7.4,0l0,8.8l7.4,0C279.5,275.1,281.4,273.2,281.4,270.7z"/>
		
			<rect x="235.3" y="240.8" transform="matrix(-1.368280e-03 1 -1 -1.368280e-03 510.7455 31.3161)" class="st6" width="8.8" height="59.8"/>
		<polygon class="st46" points="201.7,272.2 197.2,270.6 201.7,269.1 		"/>
		
			<rect x="237.5" y="238.6" transform="matrix(-1.368280e-03 1 -1 -1.368280e-03 508.5411 29.1026)" class="st48" width="4.4" height="59.8"/>
	</g>
	<g>
		<g>
			
				<rect x="303.5" y="241" transform="matrix(6.123234e-17 -1 1 6.123234e-17 27.3911 595.1868)" class="st19" width="15.6" height="85.7"/>
			<rect x="261.8" y="275.1" class="st20" width="83.2" height="2.6"/>
			<rect x="261.8" y="290" class="st20" width="83.2" height="2.6"/>
			
				<rect x="345" y="275.1" transform="matrix(-1 -1.224647e-16 1.224647e-16 -1 705.6714 552.8039)" class="st43" width="15.6" height="2.6"/>
			
				<rect x="345" y="282.6" transform="matrix(6.123234e-17 -1 1 6.123234e-17 68.9378 636.7335)" class="st43" width="15.6" height="2.6"/>
			
				<rect x="345" y="290" transform="matrix(-1 -1.224647e-16 1.224647e-16 -1 705.6714 582.6881)" class="st43" width="15.6" height="2.6"/>
		</g>
		<g>
			
				<rect x="285.2" y="241" transform="matrix(6.123234e-17 -1 1 6.123234e-17 9.1074 576.9031)" class="st19" width="15.6" height="85.7"/>
			<rect x="243.5" y="275.1" class="st20" width="83.2" height="2.6"/>
			<rect x="243.5" y="290" class="st20" width="83.2" height="2.6"/>
			
				<rect x="326.7" y="275.1" transform="matrix(-1 -1.224647e-16 1.224647e-16 -1 669.1039 552.8039)" class="st43" width="15.6" height="2.6"/>
			
				<rect x="326.7" y="282.6" transform="matrix(6.123234e-17 -1 1 6.123234e-17 50.6541 618.4498)" class="st43" width="15.6" height="2.6"/>
			
				<rect x="326.7" y="290" transform="matrix(-1 -1.224647e-16 1.224647e-16 -1 669.1039 582.6881)" class="st43" width="15.6" height="2.6"/>
		</g>
		<g>
			
				<rect x="294.6" y="223.6" transform="matrix(6.123234e-17 -1 1 6.123234e-17 35.9157 568.843)" class="st19" width="15.6" height="85.7"/>
			<rect x="252.9" y="257.7" class="st20" width="83.2" height="2.6"/>
			<rect x="252.9" y="272.6" class="st20" width="83.2" height="2.6"/>
		</g>
		<path class="st43" d="M351.7,260.3v-2.6h-15.6v2.6h5.3c0.6,0,1.2,0.5,1.2,1.2v10c0,0.6-0.5,1.2-1.2,1.2h-5.3v2.6h15.6v-2.6h-5.3
			c-0.6,0-1.2-0.5-1.2-1.2v-10c0-0.6,0.5-1.2,1.2-1.2H351.7z"/>
		<g>
			
				<rect x="276.3" y="223.6" transform="matrix(6.123234e-17 -1 1 6.123234e-17 17.6319 550.5593)" class="st19" width="15.6" height="85.7"/>
			<g class="st1">
				<circle class="st37" cx="250.8" cy="266.4" r="3.3"/>
				<circle class="st38" cx="263.7" cy="266.4" r="3.3"/>
				<circle class="st42" cx="276.6" cy="266.4" r="3.3"/>
				<circle class="st49" cx="289.5" cy="266.4" r="3.3"/>
				<circle class="st50" cx="302.3" cy="266.4" r="3.3"/>
				<circle class="st50" cx="315.2" cy="266.4" r="3.3"/>
				<circle class="st37" cx="334.8" cy="266.4" r="3.3"/>
			</g>
			<rect x="234.6" y="257.7" class="st20" width="83.2" height="2.6"/>
			<rect x="234.6" y="272.6" class="st20" width="83.2" height="2.6"/>
			<path class="st43" d="M333.4,260.3v-2.6h-15.6v2.6h5.3c0.6,0,1.2,0.5,1.2,1.2v10c0,0.6-0.5,1.2-1.2,1.2h-5.3v2.6h15.6v-2.6h-5.3
				c-0.6,0-1.2-0.5-1.2-1.2v-10c0-0.6,0.5-1.2,1.2-1.2H333.4z"/>
		</g>
		<g>
			
				<rect x="266.9" y="241" transform="matrix(6.123234e-17 -1 1 6.123234e-17 -9.1764 558.6193)" class="st19" width="15.6" height="85.7"/>
			<rect x="225.3" y="275.1" class="st20" width="83.2" height="2.6"/>
			<rect x="225.3" y="290" class="st20" width="83.2" height="2.6"/>
			
				<rect x="308.5" y="275.1" transform="matrix(-1 -1.224647e-16 1.224647e-16 -1 632.5364 552.8039)" class="st43" width="15.6" height="2.6"/>
			
				<rect x="308.5" y="282.6" transform="matrix(6.123234e-17 -1 1 6.123234e-17 32.3704 600.1661)" class="st43" width="15.6" height="2.6"/>
			
				<rect x="308.5" y="290" transform="matrix(-1 -1.224647e-16 1.224647e-16 -1 632.5364 582.6881)" class="st43" width="15.6" height="2.6"/>
		</g>
		<g class="st1">
			<circle class="st37" cx="241" cy="283.7" r="3.3"/>
			<circle class="st38" cx="253.9" cy="283.7" r="3.3"/>
			<circle class="st39" cx="266.7" cy="283.7" r="3.3"/>
			<circle class="st49" cx="279.6" cy="283.7" r="3.3"/>
			<circle class="st50" cx="292.5" cy="283.7" r="3.3"/>
			<circle class="st50" cx="305.4" cy="283.7" r="3.3"/>
			<circle class="st37" cx="325.4" cy="283.7" r="3.3"/>
			<circle class="st37" cx="343.7" cy="283.7" r="3.3"/>
		</g>
	</g>
	<g class="st51">
		<linearGradient id="SVGID_12_" gradientUnits="userSpaceOnUse" x1="152.8167" y1="150.0708" x2="230.5047" y2="72.3828">
			<stop  offset="0" style="stop-color:#2BC2E1"/>
			<stop  offset="1" style="stop-color:#BCE5F1"/>
		</linearGradient>
		<path class="st52" d="M255.1,88.6c0.1,7-5.8,12.8-12.8,12.8h-81.6c6.9,0,12.5-5.6,12.5-12.5c0-6.9,5.6-12.5,12.5-12.5
			c0.2,0,0.5,0,0.7,0c4.5,0.3,8.7-1.9,11.2-5.6c3.5-5.4,9.6-8.9,16.6-8.9c10.3,0,18.8,7.9,19.7,17.9c2.2-2.1,5.3-3.4,8.6-3.4
			C249.4,76.3,255,81.8,255.1,88.6z"/>
		<g>
			
				<linearGradient id="SVGID_13_" gradientUnits="userSpaceOnUse" x1="152.1444" y1="103.9692" x2="154.248" y2="99.0108" gradientTransform="matrix(1 0 0 1 -35.5806 0)">
				<stop  offset="0" style="stop-color:#2BC2E1"/>
				<stop  offset="1" style="stop-color:#BCE5F1"/>
			</linearGradient>
			<path class="st53" d="M121.8,98.4C121.8,98.4,121.8,98.4,121.8,98.4c0-0.1-0.1-0.1-0.1-0.2c0,0,0,0,0-0.1c0,0,0-0.1,0-0.1
				c0,0-0.1-0.1-0.1-0.1c0,0,0,0,0,0c-0.4-0.5-1-0.8-1.7-0.8c-0.7,0-1.4,0.4-1.7,0.9c0,0.1-0.1,0.1-0.2,0.2c-0.3,0.3-0.6,0.4-1,0.4
				c0,0,0,0-0.1,0c-0.7,0-1.3,0.6-1.3,1.3c0,0.7-0.6,1.3-1.3,1.3h5.4h0.5c1-0.1,1.9-1,1.9-2.1C121.9,98.9,121.9,98.6,121.8,98.4z"/>
		</g>
		<linearGradient id="SVGID_14_" gradientUnits="userSpaceOnUse" x1="130.5858" y1="131.7857" x2="151.0201" y2="92.4196">
			<stop  offset="0" style="stop-color:#2BC2E1"/>
			<stop  offset="1" style="stop-color:#BCE5F1"/>
		</linearGradient>
		<path class="st54" d="M155.8,98.5c0-1.5-1.3-2.8-2.8-2.8c-0.1,0-0.1,0-0.2,0c-0.8,0-1.6-0.3-2.2-0.9c-0.1-0.1-0.2-0.3-0.3-0.4
			c-0.8-1.2-2.2-2-3.7-2c-0.1,0-0.1,0-0.2,0c-0.1,0-0.1,0-0.2,0c-1.5,0-2.9,0.8-3.7,2c-0.1,0.1-0.2,0.3-0.3,0.4
			c-0.6,0.6-1.3,0.9-2.2,0.9c-0.1,0-0.1,0-0.2,0c-1.5,0-2.8,1.3-2.8,2.8c0,1.5-1.3,2.8-2.8,2.8h11.4h0.4h0.5h0.4h11.4
			C157,101.3,155.8,100,155.8,98.5z"/>
	</g>
	<g>
		<g>
			<path class="st55" d="M203.7,152.8h-2.8V94H191v58.8h-2.8V92.6c0-0.8,0.6-1.4,1.4-1.4h12.7c0.8,0,1.4,0.6,1.4,1.4V152.8z"/>
		</g>
		<g>
			<path class="st56" d="M200.9,148.3h-2.8v-14.1h-9.9v14.1h-2.8v-15.5c0-0.8,0.6-1.4,1.4-1.4h12.7c0.8,0,1.4,0.6,1.4,1.4V148.3z"/>
		</g>
		<g>
			<g>
				<circle class="st46" cx="159" cy="161" r="5"/>
			</g>
			<g>
				<rect x="159" y="156" class="st46" width="2.5" height="10.1"/>
			</g>
			<g>
				<circle class="st55" cx="161.5" cy="161" r="5"/>
			</g>
		</g>
		<g>
			<rect x="169.5" y="108.2" class="st57" width="23" height="2.8"/>
		</g>
		<g>
			<g>
				<path class="st57" d="M173.9,118.9h-15.8c0.2-1.2,0.9-3.7,2.8-5.9c3.1-3.6,7.3-4.3,8.4-4.4c5.6,0,11.2,0,16.7,0
					c-1.5,0.3-5.1,1.2-8.3,4.3C175.5,115.1,174.4,117.5,173.9,118.9z"/>
			</g>
			<g>
				<g>
					<path class="st57" d="M184.5,142.5h-29v-20.3c0-7.7,6.3-14,14-14h8.3c2.1,0,3.8,1.7,3.8,3.7L184.5,142.5z M158.3,139.7h23.2
						l-2.7-27.7c0-0.6-0.5-1-1-1h-8.3c-6.2,0-11.2,5-11.2,11.2V139.7z"/>
				</g>
				<g>
					<g>
						<path class="st58" d="M190.3,140.9c-2.2,0-4-1.8-4-4s1.8-4,4-4s4,1.8,4,4S192.5,140.9,190.3,140.9z M190.3,134
							c-1.6,0-2.9,1.3-2.9,2.9c0,1.6,1.3,2.9,2.9,2.9c1.6,0,2.9-1.3,2.9-2.9C193.1,135.3,191.9,134,190.3,134z"/>
					</g>
					<g>
						<path class="st59" d="M187.8,157.5c0,0,0.1-0.2,1.1-0.5s1.4-0.3,1.4-0.3s-0.1,0.5-0.8,0.8
							C188.8,157.8,187.8,157.5,187.8,157.5z"/>
					</g>
					<g>
						<path class="st59" d="M180.7,156.3c0,0,0.4-0.2,1.3-0.2c0.9,0,1.4,0.2,1.4,0.2s-0.3,0.7-1.4,0.7
							C180.8,156.9,180.7,156.3,180.7,156.3z"/>
					</g>
					<g>
						<path class="st20" d="M179.5,135.2c0.1-0.3,0.2-0.5,0.2-0.5c0.1-0.2,0.2-0.4,0.3-0.6c0.1,0,0.3,0.1,0.6,0.1
							c0.2,0,0.4,0.1,0.5,0.1c0.5,0.1,1.5,0.2,4.1,0.3c0.1,0.1,0.3,0.3,0.5,0.6c0,0,2.1,2.8,3.2,11.3c0,0,0.7,4.8,1.4,10.3
							c0,0-0.6,0.4-1.1,0.6c-0.2,0.1-0.5,0.2-0.9,0.2c-0.5-0.7-1-1.8-1.4-3c-0.6-2-0.6-3.7-0.4-4.9c-0.2-1.1-0.5-2.5-1.2-4
							c-0.7-1.6-1.5-2.8-2.1-3.7c0,2.7-0.1,5.4-0.1,8.1c0,2.2,0,4.4,0,6.6c-0.2,0.1-0.6,0.3-1.2,0.1c-0.6-0.2-0.8-0.4-0.8-0.4
							c-0.1-0.6-0.3-1.5-0.4-2.5c-0.1-0.6-0.3-2.1-0.5-3.6c-0.1-1.4-0.2-3.4-0.1-5.9c-0.9-5-1-6.8-0.9-7.5c0,0,0,0,0,0
							C179.2,136.8,179.3,136.2,179.5,135.2z"/>
					</g>
					<g>
						<path class="st45" d="M190.3,156.6c-0.2,0.2-0.6,0.5-1.3,0.7c-0.5,0.1-1,0.1-1.2,0.1c0.3,0.9,0.5,1.7,0.7,2.2
							c0.4,1.1,0.7,1.9,0.8,3c0,0.3,0,0.5,0,0.6l1.3,0c0.1-0.1,0.1-0.1,0.2-0.2c0.1,0.1,0.2,0.1,0.3,0.2h3.3c0.2,0,0.4-0.2,0.3-0.3
							l0,0l-1.3-0.3c-1.4-0.4-2.4-1.3-2.6-2.5c-0.1-0.8-0.3-1.7-0.4-2.3C190.5,157.4,190.4,157,190.3,156.6z"/>
					</g>
					<g>
						<path class="st45" d="M180.7,156.3c0.3,0.1,0.8,0.2,1.4,0.2c0.6,0,1-0.1,1.3-0.3c-0.1,1.2-0.2,2.2-0.3,2.9
							c-0.1,0.9-0.3,2.3,0.1,2.5c0,0,0.1,0,0.2,0c0.1,0,0.2,0,0.3,0.1c0.1,0,0.3,0.1,0.8,0.1c0,0.1,0,0.1,0.1,0.2
							c-0.4,0.1-1.4,0.4-2.4,0.5c-0.2,0-0.5,0.1-0.8-0.1c-0.2-0.1-0.2-0.3-0.2-0.4C181,160.1,180.9,158.2,180.7,156.3z"/>
					</g>
					<g>
						<path class="st60" d="M183.1,126.7c-0.9,0.3-1.9,0.6-2.8,0.9c0.1-0.3,0.1-0.9,0-1.4c-0.1-0.6-0.3-1-0.5-1.3
							c0.5-0.2,1.1-0.5,1.7-0.6c0,0.1,0.1,0.2,0.2,0.3c0.1,0.2,0.2,0.3,0.3,0.3c0.2,0.2,0.6,0.1,0.8,0.1
							C182.9,125.6,183,126.1,183.1,126.7z"/>
						<path class="st26" d="M182.6,121.4c0.2-0.3,0.4-0.8,0.2-1c-0.2-0.2-0.5,0-1.4,0.1c-1.2,0.2-1.4,0-2,0.2
							c-0.2,0.1-0.8,0.3-1.2,1c-0.5,0.9-0.1,1.9,0,2.2c0.5,1.2,1.5,1.8,1.8,1.9c0.2,0.1,0.5,0.2,0.7,0.4c0.5-1.2,1.1-2.3,1.6-3.5
							L182.6,121.4z"/>
						<path class="st60" d="M182.6,121.4c0.1,0.3,0.3,0.5,0.4,0.8c0.4,0.2,0.8,0.4,1.2,0.6c-0.1,0.2-0.1,0.3-0.2,0.5
							c0.1,0.6,0.2,1.1,0.3,1.7c-0.2,0.2-0.6,0.5-1,0.7c-0.1,0.1-0.2,0.1-1.5,0.2c-0.6,0.1-0.8,0.1-1,0c-0.2-0.2-0.2-0.5-0.1-0.7
							c0.1-0.2,0.2-0.2,0.3-0.4c0.1-0.3-0.1-0.5,0-0.8c0.1-0.3,0.3-0.3,0.6-0.7c0.4-0.5,0.3-0.7,0.6-1.3
							C182.2,121.7,182.4,121.5,182.6,121.4z"/>
						<path class="st61" d="M180.8,124.7"/>
						<path class="st26" d="M184,123.3c0,0,0.1,0.1,0.2,0.2c0.1,0.1,0,0.2,0,0.3c-0.1,0.1-0.2,0.1-0.4,0.2c-0.1,0-0.2,0.1-0.3,0.1
							c0,0.1,0,0.2,0.1,0.3c0.1,0.4,0.1,0.4,0.1,0.4c0.1,0.1,0.4-0.1,0.4-0.3c0-0.1,0-0.2,0-0.2c0.1,0,0.2,0.2,0.3,0.4
							c0.1,0.3,0,0.5,0,0.6c-0.2,0.4-0.6,0.5-0.8,0.5c0,0,0,0-0.1,0c-1.4,0.2-1.5,0.2-1.6,0.2c-0.8-0.2-1-2.6-1-2.7
							c0.3-0.2,0.6-0.4,0.8-0.6c0,0.1-0.3,0.5,0,1c0,0.1,0.2,0.5,0.6,0.5c0.4,0,0.5-0.4,1.2-0.6C183.7,123.3,183.8,123.3,184,123.3z
							"/>
					</g>
					<g>
						<path class="st61" d="M184.2,126.7c-1.6,0.1-3.8,0.2-4.9,0.6c-0.7,0.3-1.2,0.7-1.2,0.7c-0.1,0.1-0.3,0.3-0.4,0.4
							c0.3,0.7,0.7,1.4,1,2.4c0.6,1.9,0.7,3.6,0.6,4.8c1.4,0.2,1.7,0.3,3.4,0.3c2.7,0,3.6-0.6,3.6-0.6s-0.2-1.4,0-2.9
							c0.1-0.9,0.3-1.2,0.1-1.8c-0.1-0.4-0.3-0.8-0.5-1c0.1,0,0.2-0.1,0.4-0.1C185.3,128.5,184.1,127.9,184.2,126.7z"/>
					</g>
					<g>
						<path class="st42" d="M179.1,137.9c-0.5-0.3-1.2-0.8-1.8-1.6c-1.2-1.5-1.6-3-1.7-3.9c0.2-1.1,0.9-3.5,2.9-4.7
							c0.9-0.5,2.3-1,2.7-0.6c0.4,0.5-0.8,2-1.1,2.4c-0.8,1-1.7,2-2.5,2.9c0.3,0.4,0.5,0.8,0.8,1.3c0.4,0.8,0.7,1.6,0.9,2.3
							C179.2,136.7,179.2,137.3,179.1,137.9z"/>
					</g>
					<g>
						<path class="st42" d="M177.4,132.8c0.1,0,0.2,0,0.3,0c-0.1-0.1-0.1-0.2-0.2-0.3c0.8-1,1.7-2,2.5-2.9c0.3-0.4,1.5-2,1.1-2.4
							c-0.4-0.4-1.8,0-2.7,0.6c-1.9,1.2-2.6,3.3-2.9,4.5c0,0.1,0,0.2,0,0.3c0,0.2,0.1,0.4,0.1,0.6
							C176.2,133,176.8,132.8,177.4,132.8z"/>
					</g>
					<g>
						<path class="st19" d="M179.4,127.3c-0.5,0.2-0.9,0.4-0.9,0.4c-0.2,0.1-0.4,0.3-0.4,0.3c-0.1,0.1-0.3,0.3-0.4,0.4
							c0.3,0.7,0.7,1.4,1,2.4c0.6,1.9,0.4,5.1,0.3,6.3c1.4,0.2,1.7,0.3,3.4,0.3c2.7,0,4-0.9,4-0.9s-0.2-2.5-0.1-4
							c0.1-0.9,0.3-1.2,0.1-1.8c-0.1-0.4-0.3-0.8-0.5-1c0,0,0,0,0,0c0-0.7-0.1-1.2-0.2-1.6c-0.1-0.3-0.2-0.5-0.4-0.8
							c-0.4-0.4-0.8-0.5-1.5-0.5C183.8,126.6,181.5,126.4,179.4,127.3z"/>
					</g>
					<g>
						<linearGradient id="SVGID_15_" gradientUnits="userSpaceOnUse" x1="186.3601" y1="132.4454" x2="185.8831" y2="128.331">
							<stop  offset="0" style="stop-color:#2BC2E1"/>
							<stop  offset="1" style="stop-color:#02A3BF"/>
						</linearGradient>
						<path class="st62" d="M187.6,132.3c-0.2-0.8-0.5-2-1.2-3.3c-0.5-0.9-1.1-2.2-1.7-2.1c-0.5,0.1-0.8,1.6-0.7,2.7
							c0.2,1.9,1.4,3.3,2.2,4c0.2,0.1,0.6,0.3,1,0.4c0.2-0.6,0.6-1.2,1.1-1.7C188.1,132.4,187.8,132.4,187.6,132.3z"/>
					</g>
					<g>
						<path class="st60" d="M192.5,132.9l0.5,0c0.1,0,0.2,0,0.3,0.1l0.3,0.3c0.1,0.1,0.1,0.2,0.1,0.3c0,0,0.1,0.5,0,0.7
							c0,0.1-0.2,0.3-0.2,0.3l-0.3-0.3l-0.2-0.3c0,0-0.1,0-0.3-0.1c-0.3-0.1-0.3-0.3-0.3-0.3l-0.3-0.7H192.5z"/>
					</g>
					<g>
						<linearGradient id="SVGID_16_" gradientUnits="userSpaceOnUse" x1="189.659" y1="132.063" x2="189.182" y2="127.9485">
							<stop  offset="0" style="stop-color:#2BC2E1"/>
							<stop  offset="1" style="stop-color:#02A3BF"/>
						</linearGradient>
						<path class="st63" d="M192.2,132.9c-0.9-0.1-1.8-0.3-2.7-0.4c-0.4,0-0.8-0.1-1.1-0.1c-0.4,0.5-0.8,1.1-1.1,1.7
							c0.8,0.2,1.8,0.4,3,0.2c0.9-0.1,1.7-0.5,2.2-0.7C192.4,133.4,192.3,133.2,192.2,132.9z"/>
					</g>
				</g>
				<g>
					<path class="st31" d="M199.2,142.5h-26.8v-20.3c0-7.7,6.3-14,14-14h6c2.1,0,3.8,1.7,3.8,3.7L199.2,142.5z M175.3,139.7h20.9
						l-2.7-27.7c0-0.6-0.5-1-1-1h-6c-6.2,0-11.2,5-11.2,11.2V139.7z"/>
				</g>
			</g>
		</g>
		<path class="st31" d="M181.9,120.2c-0.1,0.7-0.3,1.8-1,2.9c-0.8,1.3-1.7,2.1-2.3,2.5c-1.2-1-1.5-2.7-0.8-4
			C178.5,120.2,180.3,119.6,181.9,120.2z"/>
		<g id="XMLID_167_">
			<path class="st32" d="M197.1,142.2L197.1,142.2H197h-0.1h-0.1h-0.1h-0.1h-0.1h-0.1h-0.1h-0.1h-0.1h-0.1h-0.1h-0.1h-0.1h-0.1h-0.1
				h-0.1H196H196h-0.1h-0.1h-0.1h-0.1h-0.1h-0.1h-0.1h-0.1h-0.1h-0.1h-0.1h-0.1h-0.1h-0.1h-0.1h-0.1H195H195h-0.1h-0.1h-0.1h-0.1
				h-0.1h-0.1h-0.1h-0.1h-0.1h-0.1h-0.1h-0.1h-0.1h-0.1h-0.1h-0.1H194H194h-0.1h-0.1h-0.1h-0.1h-0.1h-0.1h-0.1h-0.1h-0.1h-0.1h-0.1
				h-0.1h-0.1h-0.1h-0.1h-0.1H193H193h-0.1h-0.1h-0.1h-0.1h-0.1h-0.1h-0.1h-0.1h-0.1h-0.1h-0.1h-0.1h-0.1h-0.1h-0.1h-0.1H192H192
				h-0.1h-0.1h-0.1h-0.1h-0.1h-0.1h-0.1h-0.1h-0.1h-0.1h-0.1h-0.1h-0.1h-0.1h-0.1h-0.1H191H191h-0.1h-0.1h-0.1h-0.1h-0.1h-0.1h-0.1
				h-0.1h-0.1h-0.1h-0.1h-0.1h-0.1h-0.1h-0.1h-0.1H190h-0.1h-0.1h-0.1h-0.1h-0.1h-0.1h-0.1h-0.1h-0.1h-0.1h-0.1h-0.1h-0.1h-0.1h-0.1
				h-0.1h-0.1H189h-0.1h-0.1h-0.1h-0.1h-0.1h-0.1h-0.1h-0.1h-0.1h-0.1h-0.1h-0.1h-0.1h-0.1h-0.1h-0.1H188H188h-0.1h-0.1h-0.1h-0.1
				h-0.1h-0.1h-0.1h-0.1h-0.1h-0.1h-0.1h-0.1h-0.1h-0.1h-0.1h-0.1H187H187h-0.1h-0.1h-0.1h-0.1h-0.1h-0.1h-0.1h-0.1h-0.1h-0.1h-0.1
				h-0.1h-0.1h-0.1h-0.1h-0.1H186H186h-0.1h-0.1h-0.1h-0.1h-0.1h-0.1h-0.1h-0.1h-0.1h-0.1h-0.1h-0.1h-0.1h-0.1h-0.1h-0.1H185H185
				h-0.1h-0.1h-0.1h-0.1h-0.1h-0.1h-0.1h-0.1h-0.1h-0.1h-0.1h-0.1h-0.1h-0.1h-0.1h-0.1H184H184h-0.1h-0.1h-0.1h-0.1h-0.1h-0.1h-0.1
				h-0.1h-0.1h-0.1h-0.1h-0.1h-0.1h-0.1h-0.1h-0.1H183H183h-0.1h-0.1h-0.1h-0.1h-0.1h-0.1h-0.1h-0.1h-0.1h-0.1h-0.1h-0.1h-0.1h-0.1
				h-0.1h-0.1H182H182h-0.1h-0.1h-0.1h-0.1h-0.1h-0.1h-0.1h-0.1h-0.1h-0.1h-0.1h-0.1h-0.1h-0.1h-0.1h-0.1H181h-0.1h-0.1h-0.1h-0.1
				h-0.1h-0.1h-0.1h-0.1h-0.1h-0.1h-0.1h-0.1h-0.1h-0.1h-0.1h-0.1h-0.1H180h-0.1h-0.1h-0.1h-0.1h-0.1h-0.1h-0.1h-0.1h-0.1h-0.1h-0.1
				h-0.1h-0.1h-0.1h-0.1h-0.1H179H179h-0.1h-0.1h-0.1h-0.1h-0.1h-0.1h-6.2h-0.1h-0.1h-0.1h-0.1h-0.1h-0.1h-0.1H172H172h-0.1h-0.1
				h-0.1h-0.1h-0.1h-0.1h-0.1h-0.1h-0.1h-0.1h-0.1h-0.1h-0.1h-0.1h-0.1h-0.1H171H171h-0.1h-0.1h-0.1h-0.1h-0.1h-0.1h-0.1h-0.1h-0.1
				h-0.1h-0.1h-0.1h-0.1h-0.1h-0.1h-0.1H170H170h-0.1h-0.1h-0.1h-0.1h-0.1h-0.1h-0.1h-0.1h-0.1h-0.1h-0.1h-0.1h-0.1h-0.1h-0.1h-0.1
				H169H169h-0.1h-0.1h-0.1h-0.1h-0.1h-0.1h-0.1h-0.1h-0.1h-0.1h-0.1h-0.1h-0.1h-0.1h-0.1h-0.1H168H168h-0.1h-0.1h-0.1h-0.1h-0.1
				h-0.1h-0.1h-0.1h-0.1h-0.1h-0.1h-0.1h-0.1h-0.1h-0.1h-0.1H167H167h-0.1h-0.1h-0.1h-0.1h-0.1h-0.1h-0.1h-0.1h-0.1h-0.1h-0.1h-0.1
				h-0.1h-0.1h-0.1h-0.1H166h-0.1h-0.1h-0.1h-0.1h-0.1h-0.1h-0.1h-0.1h-0.1h-0.1h-0.1h-0.1h-0.1h-0.1h-0.1h-0.1h-0.1H165h-0.1h-0.1
				h-0.1h-0.1h-0.1h-0.1h-0.1h-0.1h-0.1h-0.1h-0.1h-0.1h-0.1h-0.1h-0.1h-0.1H164H164h-0.1h-0.1h-0.1h-0.1h-0.1h-0.1h-0.1h-0.1h-0.1
				h-0.1h-0.1h-0.1h-0.1h-0.1h-0.1h-0.1H163H163h-0.1h-0.1h-0.1h-0.1h-0.1h-0.1h-0.1h-0.1h-0.1h-0.1h-0.1h-0.1h-0.1h-0.1h-0.1h-0.1
				H162H162h-0.1h-0.1h-0.1h-0.1h-0.1h-0.1h-0.1h-0.1h-0.1h-0.1h-0.1h-0.1h-0.1h-0.1h-0.1h-0.1H161H161h-0.1h-0.1h-0.1h-0.1h-0.1
				h-0.1h-0.1h-0.1h-0.1h-0.1h-0.1h-0.1h-0.1h-0.1h-0.1h-0.1H160H160h-0.1h-0.1h-0.1h-0.1h-0.1h-0.1h-0.1h-0.1h-0.1h-0.1h-0.1h-0.1
				h-0.1h-0.1h-0.1h-0.1H159H159h-0.1h-0.1h-0.1h-0.1h-0.1h-0.1h-0.1h-0.1h-0.1h-0.1h-0.1h-0.1h-0.1h-0.1h-0.1h-0.1H158H158h-0.1
				h-0.1h-0.1h-0.1h-0.1h-0.1h-0.1h-0.1h-0.1h-0.1h-0.1h-0.1h-0.1h-0.1h-0.1h-0.1H157h-0.1h-0.1h-0.1h-0.1h-0.1h-0.1h-0.1h-0.1h-0.1
				h-0.1h-0.1h-0.1h-0.1h-0.1h-0.1h-0.1h-0.1H156h-0.1h-0.1h-0.1h-0.1h-0.1h-0.1h-0.1h-0.1h-0.1h-0.1h-0.1h-0.1h-0.1h-0.1h-0.1h-0.1
				H155H155h-0.1h-0.1h-0.1h-0.1h-0.1h-0.1h-0.1h-0.1h-0.1h-0.1h-0.1h-0.1h-0.1h-0.1h-0.1h-0.1H154c-0.6,0-1.1,0.5-1.1,1.1v10.3
				c0,0.5,0.4,1,0.9,1.1c3.9,0.9,6.9,3.9,7.8,7.8c0.1,0.5,0.6,0.9,1.1,0.9h0.1h0.1h0.1h0.1h0.1h0.1h0.1h0.1h0.1h0.1h0.1h0.1h0.1h0.1
				h0.1h0.1h0.1h0.1h0.1h0.1h0.1h0.1h0.1h0.1h0.1h0.1h0.1h0.1h0.1h0.1h0.1h0.1h0.1h0.1h0.1h0.1h0.1h0.1h0.1h0.1h0.1h0.1h0.1h0.1h0.1
				h0.1h0.1h0.1h0.1h0.1h0.1h0.1h0.1h0.1h0.1h0.1h0.1h0.1h0.1h0.1h0.1h0.1h0.1h0.1h0.1h0.1h0.1h0.1h0.1h0.1h0.1h0.1h0.1h0.1h0.1h0.1
				h0.1h0.1h0.1h0.1h0.1h0.1h0.1h0.1h0.1h0.1h0.1h0.1h0.1h0.1h0.1h0.1h0.1h0.1h0.1h0.1h0.1h0.1h0.1h0.1h0.1h0.1h0.1h0.1h0.1h0.1h0.1
				h0.1h0.1h0.1h0.1h0.1h0.1h0.1h0.1h0.1h0.1h0.1h0.1h0.1h0.1h0.1h0.1h0.1h0.1h0.1h0.1h0.1h0.1h0.1h0.1h0.1h0.1h0.1h0.1h0.1h0.1h0.1
				h0.1h0.1h0.1h0.1h0.1h0.1h0.1h0.1h0.1h0.1h0.1h0.1h0.1h0.1h0.1h0.1h0.1h0.1h0.1h0.1h0.1h0.1h0.1h0.1h0.1h0.1h0.1h0.1h0.1h0.1h0.1
				h0.1h0.1h0.1h0.1h0.1h0.1h0.1h0.1h0.1h0.1h0.1h0.1h0.1h0.1h0.1h0.1h0.1h0.1h0.1h0.1h0.1h0.1h0.1h0.1h0.1h0.1h0.1h0.1h0.1h0.1h0.1
				h0.1h0.1h0.1h0.1h0.1h0.1h0.1h0.1h0.1h0.1h0.1h0.1h0.1h0.1h0.1h0.1h0.1h0.1h0.1h0.1h0.1h0.1h0.1h0.1h0.1h0.1h0.1h0.1h0.1h0.1h0.1
				h0.1h0.1h0.1h0.1h0.1h0.1h0.1h0.1h0.1h0.1h0.1h0.1h0.1h0.1h0.1h0.1h0.1h0.1h0.1h0.1h0.1h0.1h0.1h0.1h0.1h0.1h0.1h0.1h0.1h0.1h0.1
				h0.1h0.1h0.1h0.1h0.1h0.1h0.1h0.1h0.1h0.1h0.1h0.1h0.1h0.1h0.1h0.1h0.1h0.1h0.1h0.1h0.1h0.1h0.1h0.1h0.1h0.1h0.1h0.1h0.1h0.1h0.1
				h0.1h0.1h0.1h0.1h0.1h0.1h0.1h0.1h0.1h0.1h0.1h0.1h0.1h0.1h0.1h0.1h0.1h0.1h0.1h0.1h0.1h0.1h0.1h0.1h0.1h0.1h0.1h0.1h0.1h0.1h0.1
				h0.1h0.1h0.1h0.1h0.1h0.1h3.7h0.1h0.1h0.1h0.1h0.1h0.1h0.1h0.1h0.1h0.1h0.1h0.1h0.1h0.1h0.1h0.1h0.1h0.1h0.1h0.1h0.1h0.1h0.1h0.1
				h0.1h0.1h0.1h0.1h0.1h0.1h0.1h0.1h0.1h0.1h0.1h0.1h0.1h0.1h0.1h0.1h0.1h0.1h0.1h0.1h0.1h0.1h0.1h0.1h0.1h0.1h0.1h0.1h0.1h0.1h0.1
				h0.1h0.1h0.1h0.1h0.1h0.1h0.1h0.1h0.1h0.1h0.1h0.1h0.1h0.1h0.1h0.1h0.1h0.1h0.1h0.1h0.1h0.1h0.1h0.1h0.1h0.1h0.1h0.1h0.1h0.1h0.1
				h0.1h0.1h0.1h0.1h0.1h0.1h0.1h0.1h0.1h0.1h0.1h0.1h0.1h0.1h0.1h0.1h0.1h0.1h0.1h0.1h0.1h0.1h0.1h0.1h0.1h0.1h0.1h0.1h0.1h0.1h0.1
				h0.1h0.1h0.1h0.1h0.1h0.1h0.1h0.1h0.1h0.1h0.1h0.1h0.1h0.1h0.1h0.1h0.1h0.1h0.1h0.1h0.1h0.1h0.1h0.1h0.1h0.1h0.1h0.1h0.1h0.1h0.1
				h0.1h0.1h0.1h0.1h0.1h0.1h0.1h0.1h0.1h0.1h0.1h0.1h0.1h0.1h0.1h0.1h0.1h0.1h0.1h0.1h0.1h0.1h0.1h0.1h0.1h0.1h0.1h0.1h0.1h0.1h0.1
				h0.1h0.1h0.1h0.1h0.1h0.1h0.1h0.1h0.1h0.1h0.1h0.1h0.1h0.1h0.1h0.1h0.1h0.1h0.1h0.1h0.1h0.1h0.1h0.1h0.1h0.1h0.1h0.1h0.1h0.1h0.1
				h0.1h0.1h0.1h0.1h0.1h0.1h0.1h0.1h0.1h0.1h0.1h0.1h0.1h0.1h0.1h0.1h0.1h0.1h0.1h0.1h0.1h0.1h0.1h0.1h0.1h0.1h0.1h0.1h0.1h0.1h0.1
				h0.1h0.1h0.1h0.1h0.1h0.1h0.1h0.1h0.1h0.1h0.1h0.1h0.1h0.1h0.1h0.1h0.1h0.1h0.1h0.1h0.1h0.1h0.1h0.1h0.1h0.1h0.1h0.1h0.1h0.1h0.1
				h0.1h0.1h0.1h0.1h0.1h0.1h0.1h0.1h0.1h0.1h0.1h0.1h0.1h0.1h0.1h0.1h0.1h0.1h0.1h0.1h0.1h0.1h0.1h0.1h0.1h0.1h0.1h0.1h0.1h0.1h0.1
				h0.1h0.1h0.1h0.1h0.1h0.1h0.1h0.1h0.1h0.1h0.1h0.1h0.1h0.1h0.1h0.1h0.1h0.1h0.1h0.1h0.1h0.1h0.1h0.1h0.1h0.1h0.1
				c0.6,0,1.1-0.5,1.1-1.1v-12.7C204.4,145.5,201.1,142.2,197.1,142.2z"/>
		</g>
		<path class="st47" d="M161.6,162.5c0.1,0.5,0.6,0.9,1.1,0.9h0.1h0.1h0.1h0.1h0.1h0.1h0.1h0.1h0.1h0.1h0.1h0.1h0.1h0.1h0.1h0.1h0.1
			h0.1h0.1h0.1h0.1h0.1h0.1h0.1h0.1h0.1h0.1h0.1h0.1h0.1h0.1h0.1h0.1h0.1h0.1h0.1h0.1h0.1h0.1h0.1h0.1h0.1h0.1h0.1h0.1h0.1h0.1h0.1
			h0.1h0.1h0.1h0.1h0.1h0.1h0.1h0.1h0.1h0.1h0.1h0.1h0.1h0.1h0.1h0.1h0.1h0.1h0.1h0.1h0.1h0.1h0.1h0.1h0.1h0.1h0.1h0.1h0.1h0.1h0.1
			h0.1h0.1h0.1h0.1h0.1h0.1h0.1h0.1h0.1h0.1h0.1h0.1h0.1h0.1h0.1h0.1h0.1h0.1h0.1h0.1h0.1h0.1h0.1h0.1h0.1h0.1h0.1h0.1h0.1h0.1h0.1
			h0.1h0.1h0.1h0.1h0.1h0.1h0.1h0.1h0.1h0.1h0.1h0.1h0.1h0.1h0.1h0.1h0.1h0.1h0.1h0.1h0.1h0.1h0.1h0.1h0.1h0.1h0.1h0.1h0.1h0.1h0.1
			h0.1h0.1h0.1h0.1h0.1h0.1h0.1h0.1h0.1h0.1h0.1h0.1h0.1h0.1h0.1h0.1h0.1h0.1h0.1h0.1h0.1h0.1h0.1h0.1h0.1h0.1h0.1h0.1h0.1h0.1h0.1
			h0.1h0.1h0.1h0.1h0.1h0.1h0.1h0.1h0.1h0.1h0.1h0.1h0.1h0.1h0.1h0.1h0.1h0.1h0.1h0.1h0.1h0.1h0.1h0.1h0.1h0.1h0.1h0.1h0.1h0.1h0.1
			h0.1h0.1h0.1h0.1h0.1h0.1h0.1h0.1h0.1h0.1h0.1h0.1h0.1h0.1h0.1h0.1h0.1h0.1h0.1h0.1h0.1h0.1h0.1h0.1h0.1h0.1h0.1h0.1h0.1h0.1h0.1
			h0.1h0.1h0.1h0.1h0.1h0.1h0.1h0.1h0.1h0.1h0.1h0.1h0.1h0.1h0.1h0.1h0.1h0.1h0.1h0.1h0.1h0.1h0.1h0.1h0.1h0.1h0.1h0.1h0.1h0.1h0.1
			h0.1h0.1h0.1h0.1h0.1h0.1h0.1h0.1h0.1h0.1h0.1h0.1h0.1h0.1h0.1h0.1h0.1h0.1h0.1h0.1h0.1h0.1h0.1h0.1h0.1h0.1h0.1h0.1h0.1h0.1h0.1
			h0.1h0.1h0.1h0.1h0.1h0.1h0.1h0.1h0.1h0.1h0.1h0.1h0.1h0.1h0.1h0.1h0.1h0.1h0.1h0.1h0.1h0.1h0.1h0.1h0.1h0.1h0.1h0.1h0.1h0.1h0.1
			h0.1h0.1h0.1h3.7h0.1h0.1h0.1h0.1h0.1h0.1h0.1h0.1h0.1h0.1h0.1h0.1h0.1h0.1h0v-8.7h-31.8C157.7,155.7,160.7,158.7,161.6,162.5z"/>
		<g>
			<defs>
				<path id="SVGID_17_" d="M171.4,143.3v10.3c0,0.5,0.4,1,0.9,1.1c3.9,0.9,6.9,3.9,7.8,7.8c0.1,0.5,0.6,0.9,1.1,0.9h22.2
					c0.6,0,1.1-0.5,1.1-1.1v-12.7c0-4-3.3-7.3-7.3-7.3h-24.6C171.9,142.2,171.4,142.7,171.4,143.3z"/>
			</defs>
			<use xlink:href="#SVGID_17_"  style="overflow:visible;fill:#FBAA19;"/>
			<clipPath id="SVGID_18_">
				<use xlink:href="#SVGID_17_"  style="overflow:visible;"/>
			</clipPath>
			<g class="st64">
				<path class="st32" d="M195.4,154.5h-7.1c-2.8,0-5.1-2.3-5.1-5.1v-7.9h12.2V154.5z"/>
			</g>
		</g>
		<g>
			<g>
				<circle class="st46" cx="178.1" cy="161" r="5"/>
			</g>
			<g>
				<rect x="178.1" y="156" class="st46" width="2.5" height="10.1"/>
			</g>
			<g>
				<circle class="st55" cx="180.6" cy="161" r="5"/>
			</g>
			<g>
				<circle class="st59" cx="180.6" cy="161" r="2.8"/>
			</g>
		</g>
		<g>
			<g>
				<circle class="st46" cx="199.7" cy="161" r="5"/>
			</g>
			<g>
				<rect x="199.7" y="156" class="st46" width="2.5" height="10.1"/>
			</g>
			<g>
				<circle class="st55" cx="202.3" cy="161" r="5"/>
			</g>
			<g>
				<circle class="st59" cx="202.3" cy="161" r="2.8"/>
			</g>
		</g>
		<g>
			<rect x="156.1" y="144.9" class="st57" width="11.2" height="7.4"/>
		</g>
		<g>
			<path class="st55" d="M219.2,102l-16.9,2.2v-3.1h16.8c0.3,0,0.5,0.2,0.5,0.5l0,0C219.5,101.8,219.4,102,219.2,102z"/>
		</g>
		<g>
			<path class="st55" d="M206.4,102l-16.9,2.2v-3.1h16.8c0.3,0,0.5,0.2,0.5,0.5l0,0C206.8,101.8,206.7,102,206.4,102z"/>
		</g>
	</g>
	<g>
		<path class="st65" d="M311.1,120.1"/>
		<path class="st57" d="M310.5,117.6c-1.9,1.5-0.9,6,0.9,6.9c0.6,0.3,1.2,0.2,1.2,0.2c1-0.1,1.5-0.9,1.8-1.3
			c0.8-1.1,1.3-2.8,0.6-4.4c-0.2-0.3-0.5-1.2-1.4-1.7C312.5,116.9,311.2,117,310.5,117.6z"/>
		<path class="st47" d="M315.7,120.9c-0.7-0.1-1.9-0.4-3.2-1.1c-1.4-0.9-2.2-1.9-2.6-2.6c1.1-1.3,2.9-1.6,4.3-0.8
			C315.8,117.3,316.5,119.2,315.7,120.9z"/>
		<path class="st66" d="M317.1,135.9c0.5,0.2,0.9,0.3,1.1,0.4c0.4,0.1,0.7,0.2,1.1,0.3c0,0,0.4,0.1,0.4,0.2c0,0,0,0,0,0.1
			c0,0,0.1,0,0.2,0.1c0,0,0,0,0,0.1c0,0.1-0.1,0.1-0.1,0.1c0,0,0,0,0.1,0.1c0.1,0.1,0.1,0.1,0.1,0.1c0,0.1-0.1,0.1-0.1,0.1
			c0,0.1,0.1,0.1,0.2,0.2c0,0.1-0.1,0.1-0.1,0.2c-0.3,0.2-0.9-0.1-1.5-0.2c-0.2,0-0.5-0.1-0.9-0.1c0.2,0.2,0.4,0.4,0.6,0.5
			c0.1,0.1,0.3,0.2,0.4,0.4c0.1,0.1,0.1,0.2,0.1,0.3c0,0.1-0.1,0.1-0.1,0.2c-0.2-0.1-0.5-0.2-0.9-0.5c-0.7-0.4-1.4-0.9-1.4-1.4
			C316.1,136.3,316.9,136,317.1,135.9z"/>
		<path class="st67" d="M303.5,142.9l0.2,3.5l-0.7,0.2c0,0-0.1-0.1-0.3-0.1c-0.1,0-0.3,0.1-0.3,0.3c-0.2,0.1-0.4,0.2-0.7,0.3
			c-0.4,0.1-0.7,0.2-0.9,0.3c-0.4,0.1-0.9,0.1-1.5,0.1c0-0.1,0-0.3,0.1-0.5c0.1-0.3,0.3-0.4,0.6-0.5c0.6-0.4,1-0.6,1.2-1.1
			c0.1-0.2,0.1-0.3,0.1-0.5c0-0.3,0.1-0.9-0.2-1.6L303.5,142.9z"/>
		<path class="st67" d="M299.6,140.6l-1.2,3.3l-0.8-0.1c0-0.1-0.1-0.2-0.2-0.3c-0.1-0.1-0.3,0-0.4,0.2c-0.4,0-1,0-1.6-0.1
			c-0.6-0.1-1-0.3-1.3-0.5c0-0.1,0.1-0.2,0.3-0.3c0.7-0.6,1.6,0,2.2-0.5c0.2-0.1,0.3-0.3,0.4-0.7c0.2-0.3,0.4-0.9,0.4-1.6
			L299.6,140.6z"/>
		<path class="st57" d="M309.3,123.7l1.3,0.7l1.7-3.2l-2.5-1.3c-0.2,0.4-0.6,0.9-1.2,1.2c-0.9,0.5-1.5,0.2-2.2,0.4
			c-1.6,0.5-3.1,3.6-2,5.3c0.5,0.7,1.5,1.3,2.4,1.2C308.2,127.7,309.5,126,309.3,123.7z"/>
		<path class="st66" d="M303.8,120.3l0.7,0c0.4,0,0.8-0.3,0.8-0.8c0-0.2,0-0.3,0-0.5c0-0.3,0.1-0.5,0.2-0.8c0-0.1,0.1-0.2,0.2-0.3
			c0.1-0.1,0.2-0.2,0.2-0.4c0-0.1-0.1-0.2-0.2-0.2c-0.1,0-0.2,0-0.3,0c-0.3,0-0.6,0.1-0.9,0.2c-0.3,0.1-0.5,0.3-0.7,0.6
			C303.7,118.8,303.8,119.7,303.8,120.3z"/>
		<path class="st45" d="M310.1,126.5c-1.3,0.4-2.3,0.7-3.1,0.9c-0.4,0.1-1.2,0.3-2.3,0.4c-0.9,0.1-1.3,0.1-1.5,0
			c-0.6-0.4-0.3-1.8,0.3-5.4c0.1-0.9,0.3-1.7,0.3-2.1c0-0.2,1.3,0,1.2,0.2c0,1.6-0.1,3.3-0.1,4.9c1.3-0.4,2.6-0.9,3.9-1.3
			c0,0,0.3,0,0.6,0.2c0.1,0.1,0.6,0.3,0.8,0.7C310.6,125.6,310.1,126.4,310.1,126.5z"/>
		<path id="XMLID_165_" class="st45" d="M306.7,127.1c0.2-0.8,0.6-0.6,1.2-1.9c0.2-0.4,0.3-0.8,0.7-1.1c0.3-0.3,0.7-0.4,0.9-0.5
			c0.6,0,1.2,0,1.8,0.1c0.3,0.1,0.6,0.3,1,0.5c0.4,0.2,0.7,0.3,1.1,0.4c0,0,0,0,0,0c0.4,0.1,0.7,0.3,0.9,0.6c0.3,0.3,0.4,0.6,0.5,1
			c0,0,0,0,0,0c0.1,1.2-0.4,2.2-0.7,2.8c-0.3,0.7-0.7,1.9-0.9,3.4c0.1,0.4,0.3,0.8,0.4,1.3l-7.4,0.4c0.9-2.4,0.8-4,0.5-5.1
			C306.5,127.7,306.6,127.5,306.7,127.1z"/>
		<path class="st66" d="M309.4,123.6c0.2,0.1,0.6,0.3,1.1,0.5c0.7,0.2,1.2,0.1,1.4,0c-0.1-0.2-0.1-0.5-0.1-0.8c0-0.4,0.1-0.7,0.1-1
			c-0.8-0.1-1.5-0.1-2.3-0.2C309.6,122.7,309.5,123.1,309.4,123.6z"/>
		<path class="st26" d="M304.9,118l0.1-0.2l0.3-0.8c0-0.1,0-0.2-0.1-0.2l-0.9-0.3l-3.6-1.3l0,0c0-0.1,0-0.2-0.1-0.2l-0.1,0
			c-0.1,0-0.2,0-0.2,0.1l-0.5,1.4c0,0.1,0,0.2,0.1,0.2l0.1,0c0.1,0,0.2,0,0.2-0.1l0.5-1.3l-0.5,1.3l2.9,1.1l1.4,0.5L304.9,118z"/>
		<path class="st26" d="M305,117.9l0.2-0.2c0.2-0.2,0.5-0.2,0.7-0.1l0,0l-0.5,0.8l2.5,0.9c0.1,0,0.2,0,0.2-0.1l0,0l2,0.7
			c0,0,0,0,0,0c0.1-0.1,0.3-0.3,0.5-0.6l-2.3-0.8l0,0c0-0.1,0-0.2-0.1-0.2l-2.8-1l-0.2-0.1L305,117.9z"/>
		<path class="st66" d="M310.9,117.9c-0.2,0.2-0.3,0.4-0.5,0.6c-0.2,0.3-0.4,0.6-0.6,0.9c0,0-0.1,0.1-0.2,0.2
			c-0.3,0.2-0.6,0.3-0.6,0.4c0,0,0.2,0.2,0.2,0.3c0.2,0.3-0.3,0.8-0.3,1.2c0.1,0.9,2.7,1.5,3,1c0.1-0.2-0.3-0.4-0.2-0.9
			c0-0.2,0.3-0.9,0.2-0.9c0,0,0-0.1,0-0.1c-0.1-0.2-0.2-0.4-0.7-1.1c-0.3-0.4-0.3-0.6-0.4-0.8C310.8,118.4,310.9,118.1,310.9,117.9z
			"/>
		
			<linearGradient id="XMLID_2_" gradientUnits="userSpaceOnUse" x1="-2636.8572" y1="-776.5271" x2="-2628.0198" y2="-785.3645" gradientTransform="matrix(-0.9996 -2.980379e-02 -2.980379e-02 0.9996 -2350.1946 838.2437)">
			<stop  offset="0" style="stop-color:#253959"/>
			<stop  offset="1" style="stop-color:#43536F"/>
		</linearGradient>
		<path id="XMLID_164_" class="st68" d="M313.1,136.4c-0.7,0.8-1.5,1-1.8,1.1c-0.7,0.2-1.4,0.1-2.1-0.1l-7.7-2.9
			c-0.1,0.6-0.2,1.3-0.4,2.1c-0.2,0.8-0.4,1.5-0.7,2.3c-0.2,0.6-0.5,1.5-0.8,2.4c-0.6-0.1-1.2-0.3-1.8-0.5c-0.3-0.1-0.5-0.2-0.8-0.2
			c0.3-1.2,0.7-2.8,1.3-4.7c1-3.4,1.2-3.7,1.5-4c0.9-0.8,2.2-0.8,8.4,0.6c2.2,0.5,4.1,1,5.4,1.3c0.1,0.2,0.1,0.4,0.1,0.7
			C313.9,135.5,313.3,136.2,313.1,136.4z"/>
		
			<linearGradient id="XMLID_3_" gradientUnits="userSpaceOnUse" x1="-2637.3811" y1="-778.0687" x2="-2628.4685" y2="-778.0687" gradientTransform="matrix(-0.9996 -2.980379e-02 -2.980379e-02 0.9996 -2350.1946 838.2437)">
			<stop  offset="0" style="stop-color:#253959"/>
			<stop  offset="1" style="stop-color:#43536F"/>
		</linearGradient>
		<path id="XMLID_163_" class="st69" d="M309.3,137.4c-0.9,0-2,0-3.1-0.1c-0.7,0-1.3-0.1-2-0.2c-0.2,0-0.3,0-0.5,0
			c0,0.3,0.1,0.5,0.1,0.8c0,0,0,0.5,0.1,1c0,0.6-0.1,2.4-0.4,4.8c-0.2,0.1-0.5,0.2-0.9,0.3c-0.5,0.1-0.9,0-1.2,0
			c-0.3-2.3-0.7-4.6-1-6.9l0-1.7c0-0.1,0.2-0.9,1-1.4c0.5-0.2,1-0.2,1.2-0.2C304.8,135,307.1,136.2,309.3,137.4z"/>
		<path class="st70" d="M303.4,134.2c1.6,0.8,3.1,1.7,4.7,2.5c0.2,0.2,0.5,0.4,0.7,0.6c-0.8,0-1.6,0-2.4-0.1
			C305.3,136.6,304.2,135.6,303.4,134.2z"/>
		<path class="st45" d="M315,126.2l1.2,4.6c0.4,1.6,0.7,3.2,1.1,4.8c0,0.1,0,0.3-0.2,0.6c-0.3,0.3-0.7,0.3-0.8,0.3
			c-0.5-1.5-1.1-3.2-1.9-4.9c-0.5-1.2-1.4-3.1-2-4.3c-0.4-0.6-0.3-1.4,0.2-1.9c0.2-0.2,0.4-0.3,0.6-0.3
			C314,124.9,314.8,125.4,315,126.2z"/>
		<path class="st66" d="M298.8,117.9"/>
		<path class="st45" d="M310.7,123.1c0.2,0,0.8,0.1,1.3,0.1c0,0.1,0,0.1,0,0.2c0,0.4,0,0.7,0.1,1c-0.3,0.1-0.9,0.2-1.6,0
			c-0.5-0.1-0.9-0.4-1.1-0.5c0.1-0.4,0.1-0.8,0.2-1.2C310,122.9,310.5,123.1,310.7,123.1z"/>
	</g>
	<g>
		<path class="st66" d="M235.9,211.8c-0.1,0.1-0.7,0.4-1.2,0.2c-0.2-0.1-0.4-0.3-0.6-0.5c-0.3-0.3-0.4-0.6-0.5-0.9l-1.1,0.1
			c-0.1,0-0.2,0-0.2-0.1c-0.1-0.1,0-0.3,0.1-0.3l1-0.3c0.1,0,0.2,0,0.2,0l0.9,0.4l1.3,0.6L235.9,211.8z"/>
		<path class="st66" d="M232.8,210.5l-0.5,0.2c-0.1,0-0.2,0.1-0.1,0.2l0,0c0,0.1,0.1,0.2,0.2,0.2l1.3-0.1l0.7,0.5l-0.1-0.6l-0.8-0.4
			L232.8,210.5z"/>
		<path class="st66" d="M232.2,211.5c0,0.1,0.1,0.2,0.2,0.1c0.3-0.1,0.5-0.2,0.8-0.3c0.4,0,0.8,0,1.2,0.1l-0.1-0.4l-1.2-0.1
			l-0.8,0.3C232.3,211.2,232.2,211.4,232.2,211.5z"/>
		<path class="st66" d="M233.2,211.8c0,0.1,0.1,0.1,0.2,0l0.2-0.2c0.2,0,0.4-0.1,0.7-0.1c0-0.1-0.1-0.2-0.1-0.3
			c-0.3,0-0.6,0.1-0.9,0.1l-0.1,0.3C233.2,211.7,233.2,211.8,233.2,211.8z"/>
		<circle class="st45" cx="249.3" cy="203.4" r="2.1"/>
		<path class="st32" d="M254.5,214.7c0.1,1.2,0.2,2.8-0.2,4.7c-0.2,0.9-0.4,1.8-0.7,2.5l-3-0.1c0-0.4,0-0.9-0.1-1.6
			c-0.1-1.3-0.3-1.8-0.3-2.9c0-0.5,0-1.3,0.1-2.2c-0.3-0.6-0.6-1.2-0.9-1.8c-0.9-1.9-1.6-3.7-2.3-5.5c-0.1-0.2,0-0.4,0.2-0.4l4-0.7
			L254.5,214.7z"/>
		<path class="st32" d="M262.3,225.9c-2.7,0.5-5.3,1-8,1.5c-0.2,0-1.2,0-1.9-0.7c-0.5-0.5-0.6-1.1-0.6-1.4c-0.1-0.8,0.1-1.6,0.2-2
			c0-0.1,0.1-0.2,0.1-0.3c0.8-2.6,1.2-3.5,1.5-4.9c0.6-2.2,0.3-2.1,0.8-3.2c0.5-1.2,1.4-2.7,3.3-4.2c0.3,0.3,0.7,0.8,1,1.5
			c0.3,0.5,0.6,1.1,0.8,1.9c0.1,0.4,0.1,1,0,2.1c-0.1,0.5-0.4,2.1-1.5,4.3c-0.4,0.8-1,1.8-1.8,2.9c1-0.3,2.1-0.7,3.2-1
			c0.9-0.2,1.7-0.4,2.5-0.6C261.9,223.1,262.1,224.5,262.3,225.9z"/>
		<path class="st57" d="M257.6,210.7c0.3,0.3,0.7,0.8,1.1,1.5c0.5,0.9,1,2,0.8,3.3c0,0.2-0.2,1.5-1.4,2.2c-0.3,0.2-0.7,0.4-1,0.5
			c0,0-0.7,0.3-1.6,0.5c-1.8,0.4-4.5,0.2-4.7,0.2c0.6,0.5,1.2,1,1.9,1.6c0.8,0.8,1.6,1.6,2.2,2.3c-1.2,0.8-2.3,1.6-3.5,2.4
			c-0.9-0.9-1.8-1.8-2.8-2.9c-1.1-1.3-2.1-2.5-2.9-3.6c-0.1-0.2-0.2-0.7-0.1-1.3c0.3-1.1,1.4-1.5,1.5-1.5c1.3-0.4,2.6-0.9,3.9-1.3
			c1-0.3,2-0.6,2.9-0.9c0.7-0.4,1.4-0.9,2.2-1.5C256.6,211.5,257.1,211.1,257.6,210.7z"/>
		<path class="st31" d="M248.6,212l5.2,1.5c0.6-0.3,1.2-0.7,1.8-1.2c0.8-0.6,1.4-1.1,2-1.7c-1.7-1.7-3.1-2.9-4.1-3.6
			c-0.7-0.5-1.1-0.8-2-1.4c0,0-1.5-0.9-2.4-1.2c0,0-0.6-0.1-0.6-0.1l0,0l-1.2,2.7c-0.1,0.2-0.1,0.5-0.1,0.8l0.4,3
			c0.1,0.4,0.3,0.8,0.7,1C248.5,212,248.6,212,248.6,212z"/>
		<path class="st66" d="M246.7,207.2c0-0.1,0-0.2,0-0.3c0-0.2,0.1-0.3,0.2-0.4c0-0.4,0-0.9-0.3-1.5c-0.1-0.2-0.2-0.4-0.3-0.5
			l1.5-0.9l1,1.1l-0.5,0.6c-0.3,0.4-0.6,0.8-0.9,1.3c0,0.1-0.1,0.2-0.2,0.2C247,207,246.8,207.2,246.7,207.2z"/>
		<path class="st45" d="M248,227.5c0,0,0.2-0.6,1-0.9c0.7-0.3,1.1,0,2-0.4c0.2-0.1,0.8-0.4,0.8-0.8c0-0.2-0.1-0.4-0.3-0.5
			c0.6-0.4,1.1-0.8,1.7-1.2c0,0,0.5,0.5,0.8,1.6s0.3,2.1,0.3,2.1L248,227.5z"/>
		<path class="st45" d="M261.9,222.8c0.2-0.1,0.6-0.2,1-0.3c0.5-0.1,0.9,0,1.2,0c0,1.4,0,2.8,0,4.1c0,0,0,0.4-0.2,0.6
			c-0.2,0.2-0.4,0.2-0.4,0.2c-0.6,0-1.3,0-1.9,0c0-0.1,0.1-0.2,0.2-0.4c0.4-0.5,0.9-0.4,1-0.8c0.1-0.2,0-0.4,0-0.5
			c0-0.2-0.2-0.4-0.2-0.5c-0.1-0.1-0.2-0.3-0.4-0.4C262.1,224.2,262,223.5,261.9,222.8z"/>
		<path class="st66" d="M247.8,203.6l-1.8,1.1c-0.3,0.2-0.6,0.2-0.8,0.1l0,0c-0.3-0.1-0.5-0.2-0.6-0.4l-0.7-0.8l-0.3,0.2
			c-0.1,0.1-0.2,0-0.2-0.1l0-0.8l-0.1-0.4c-0.2-0.6-0.2-1.2-0.2-1.8l0,0c0.1-0.8,0.5-1.5,1.2-1.9l0,0c0.7-0.5,1.6-0.6,2.4-0.3
			l0.2,0.1c0.2,0.1,0.3,0.2,0.5,0.3l0,0c0.8,0.7,1,1.8,0.7,2.8l-0.2,0.6L247.8,203.6z"/>
		<path class="st31" d="M247.2,204.9c-0.7,1.3-1.4,2.6-2.2,3.9c-0.6,1.1-1.2,2.1-1.8,3.2c-1-0.2-1.8-0.4-2.3-0.4
			c-0.9-0.1-1.4-0.2-3.1-0.4c-0.8-0.1-1.5-0.2-2-0.3c0,0.4-0.1,0.7-0.1,1.1c0.8,0.5,2.1,1.2,3.8,1.7c2.2,0.7,3.3,1.1,4.5,0.8
			c0.7-0.2,2.2-1.4,4.1-4.5c0.3-0.5,0.5-1,0.7-1.3c0.1-0.2,0.4-1.1,0-2.1C248.3,205.4,247.3,205,247.2,204.9z"/>
		<path class="st45" d="M248.5,200.1c0.1,0.7-0.3,1.1-0.4,2.5c-0.1,0.5-0.1,0.9-0.1,1.1c-0.5-0.4-0.9-0.8-1.1-1
			c-0.2-0.3-0.3-0.5-0.4-0.8c-0.2-0.6,0-1.1-0.3-1.3c0,0-0.2-0.1-0.3-0.1c-0.3,0.1,0,0.9-0.4,1.2c-0.4,0.3-1.1,0-1.5-0.2
			c-0.5-0.2-0.9-0.4-1.1-0.8c-0.2-0.5,0.1-1,0.3-1.2c0.6-1,2.3-2,3.8-1.4C247.6,198.5,248.3,199.2,248.5,200.1z"/>
		<path class="st29" d="M249.1,201.7c-0.7,0-2-0.1-3.4-0.8c-1.5-0.7-2.5-1.7-3-2.3c1-1.4,2.8-2,4.3-1.4
			C248.8,198,249.7,199.9,249.1,201.7z"/>
	</g>
	<g>
		<path class="st71" d="M273.7,248.5c1.3,0.2,2.4,1.8,2.2,3c-0.1,0.7-0.7,0.8-0.9,1.5c-0.4,1.3,0.9,2.1,0.8,3.2
			c-0.2,2.3-6.8,5-9.4,2.7c-0.8-0.7-1.3-2-1.1-3.1c0.2-1.1,1.3-2.1,2.2-2.6c0.6-0.3,1.1-0.4,1.6-0.9c0.5-0.5,0.6-0.9,0.8-1.3
			C270.5,249.8,272.2,248.2,273.7,248.5z"/>
		<path class="st13" d="M273.7,255.3c2.2,1.3,4.4,2.6,6.6,3.8c0.1,0,0.2,0.1,0.3,0c2.5-0.5,5.1-1,7.6-1.5c0.3,0,0.5,0.2,0.5,0.4
			l-0.3,2.6c0,0.2-0.1,0.3-0.3,0.3c-1.1,0.3-2.2,0.7-3.6,0.9c-1.8,0.3-3.4,0.5-4.7,0.5c0,0-0.1,0-0.1,0c-1.1-0.4-2.4-0.9-3.8-1.5
			c-1.9-0.9-3.4-2-4.6-3c-0.2-0.1-0.2-0.4,0-0.6c0.7-0.7,1.4-1.3,2-2C273.3,255.2,273.5,255.2,273.7,255.3z"/>
		<path class="st45" d="M266.4,297.7c-0.1,0-0.3,0-0.4,0.1c-0.2,0.2-0.1,0.5-0.1,1c0,0.3,0.1,0.8,0,1.5c1.8,0,3.7,0,5.5,0
			c-0.2-0.1-0.4-0.2-0.7-0.4c-1-0.6-1.3-0.7-1.7-0.9c-0.4-0.2-0.9-0.6-1.3-1.3C267.3,297.7,266.9,297.7,266.4,297.7z"/>
		<path class="st45" d="M289,292.9c0.1,0.3,0.2,0.7,0.4,1.1c0.2,0.5,0.4,0.9,0.6,1.3c0.1,0.2,0.4,0.3,0.6,0.2
			c1.4-0.9,2.8-1.8,4.2-2.6c0-0.1,0-0.3-0.1-0.4c-0.2-0.2-0.6,0-0.8,0c-0.9,0.3-1.9,0.4-2.6,0.3c-0.5-0.1-0.8-0.3-1.2-0.5
			C289.8,292.4,289.4,292.6,289,292.9z"/>
		<path class="st71" d="M267.5,265.1c0.1-0.1,1.2-1.5,2.9-1.6c1.5-0.1,2.9,1,6.5,5.9c1.8,2.4,3.2,4.5,5.6,8.3c2.1,3.2,3.2,5,4.8,7.7
			c1.6,2.7,2.9,5.1,4,7c-1.4,0.9-2.8,1.9-4.2,2.8c-2.3-3.5-6-8.7-10.2-14.1c-3.3-4.3-5-6.4-6-7.2c-1.6-1.2-3.1-2-3.8-4
			C266.9,269.6,266,267,267.5,265.1z"/>
		<path class="st71" d="M269,263.4c1.1-0.4,2.5,0.1,3.3,0.9c0.7,0.6,1.7,2,0.8,9.2c-0.1,1.2-0.4,2.9-1.8,9.7c-0.8,3.8-1,4.5-1.5,6.9
			c-0.7,3.5-1.2,6.3-1.5,8.1c-1.5-0.1-3.1-0.1-4.6-0.2c0.2-2.4,1.4-20.8,2.7-29.4C266.7,267.1,267.1,264.1,269,263.4z"/>
		<path class="st13" d="M264.9,273.5c-0.1,0.6,0.4,1.2,1,1.3c1.7,0.2,3.7,0.2,6,0c2.5-0.2,4.8-0.6,6.7-1.1c0.8-0.2,1.1-1.1,0.6-1.8
			c-1.1-1.6-2-3.1-2.6-4.2c0,0-2.4-4.6-1.5-5.9c0.4-0.7,0.5-0.9,0.6-1.5c0-0.1,0.1-0.3,0.1-0.5c0-0.4-0.1-0.5-0.5-2.2
			c-0.3-1.3-0.4-1.3-0.5-1.5c-0.1-0.2-0.7-0.8-2.7-0.9c-1.9-0.1-3.5,0.4-4.7,1c-0.4,0.2-0.7,0.7-0.7,1.1c0.1,1.2,0.3,2.1,0.5,2.8
			c0.4,1.2,0.8,1.8,0.7,2.8c-0.1,1.1-0.7,1.9-0.9,2.2C266.2,266.2,265.3,268.5,264.9,273.5z"/>
		<path id="XMLID_162_" class="st72" d="M274.7,252c0,0,0,0.1-0.2,0.2c-0.1,0.1-0.2,0.1-0.2,0.2c0,0.2,0,0.3,0,0.5
			c0,0.3-0.1,0.6-0.1,0.9c-0.2,0.1-0.6,0.1-1,0.2c-0.4,0-1,0.1-1.8-0.1c-0.3-0.1-0.7-0.2-1.1-0.4c-0.8-0.6-1.5-1.9-1-3.2
			c0.5-1.3,2.3-1.9,3.4-1.4c0.1,0.1,0.8,0.4,1.1,1c0,0.1,0,0.1,0.1,0.1c0,0.1,0.1,0.3,0.1,0.3c0.1,0.5,0.1,0.7,0.1,0.7
			c0.1,0.3,0.3,0.6,0.4,0.6C274.6,251.8,274.7,251.9,274.7,252z"/>
		<path class="st72" d="M270.3,252.6c0.3,0.5,0.4,1,0.4,1.3c0.1,0.8-0.1,1.1-0.2,1.2c0,0.1-0.1,0.1-0.1,0.1c-0.1,0-0.2,0-0.4,0.1
			c-0.1,0-0.3,0.1-0.4,0.1c0.2,0.4,0.6,1.2,1.3,1.7c0.1,0.1,1.9,1.4,2.8,0.7c0.5-0.4,0.9-1.8,0.1-2.3c-0.3-0.2-0.7-0.2-0.9-0.5
			c-0.1-0.3-0.1-0.6,0.1-0.9C272.1,253.5,271.2,253,270.3,252.6z"/>
		<path class="st71" d="M272.9,251.9c-0.9,1-0.4,1.8-1.3,2.6c-0.4,0.4-0.9,0.6-1.2,0.6c0-0.4-0.1-1-0.4-1.6c-0.4-0.9-1-0.9-1.2-1.5
			c-0.3-1,0.5-2.2,1.2-2.9c1.1-1,2.5-0.8,2.7-0.8c0.3,0,1.5,0.1,2,0.9c0,0.1,0.3,0.6,0.1,1c-0.1,0.2-0.3,0.2-0.3,0.3
			C273.9,250.8,273.3,251.5,272.9,251.9z"/>
		
			<linearGradient id="SVGID_19_" gradientUnits="userSpaceOnUse" x1="253.4802" y1="246.2834" x2="249.1108" y2="251.9272" gradientTransform="matrix(1 0 0 1 20.6636 0)">
			<stop  offset="0" style="stop-color:#4B7BBE"/>
			<stop  offset="0.7731" style="stop-color:#325BA9"/>
		</linearGradient>
		<path class="st73" d="M275.3,249.1c-0.6,0.5-1.6,1.3-3.1,1.9c-1.7,0.6-3.1,0.6-3.9,0.5c-0.3-1.8,0.6-3.5,2.2-4.2
			C272.3,246.6,274.4,247.4,275.3,249.1z"/>
		<g>
			
				<linearGradient id="SVGID_20_" gradientUnits="userSpaceOnUse" x1="500.5742" y1="3247.4324" x2="449.4979" y2="3257.1909" gradientTransform="matrix(0.2896 0.7643 0.9245 -0.3792 -2862.6194 1130.7379)">
				<stop  offset="0" style="stop-color:#F68C1F"/>
				<stop  offset="1" style="stop-color:#FFC50F"/>
			</linearGradient>
			<polygon class="st74" points="318.9,252.2 313.5,240.7 245.2,273.1 250.7,284.6 			"/>
			<g>
				
					<rect x="284.6" y="255.6" transform="matrix(0.429 0.9033 -0.9033 0.429 395.8259 -113.4706)" class="st47" width="6.1" height="1.5"/>
				
					<rect x="298.3" y="249.1" transform="matrix(0.429 0.9033 -0.9033 0.429 397.7635 -129.506)" class="st47" width="6.1" height="1.5"/>
				
					<rect x="280.8" y="256.6" transform="matrix(0.4291 0.9033 -0.9033 0.4291 393.8288 -108.2892)" class="st47" width="3.6" height="1.5"/>
				
					<rect x="276.2" y="258.8" transform="matrix(0.4291 0.9033 -0.9033 0.4291 393.1831 -102.9441)" class="st47" width="3.6" height="1.5"/>
				
					<rect x="256.9" y="268.7" transform="matrix(0.429 0.9033 -0.9033 0.429 391.8998 -80.9703)" class="st47" width="6.1" height="1.5"/>
				
					<rect x="253.1" y="269.8" transform="matrix(0.4291 0.9033 -0.9033 0.4291 389.9029 -75.789)" class="st47" width="3.6" height="1.5"/>
				
					<rect x="248.6" y="271.9" transform="matrix(0.4291 0.9033 -0.9033 0.4291 389.2572 -70.4439)" class="st47" width="3.6" height="1.5"/>
				
					<rect x="289.9" y="252.3" transform="matrix(0.4291 0.9033 -0.9033 0.4291 395.1205 -118.9794)" class="st47" width="3.6" height="1.5"/>
				
					<rect x="294.4" y="250.1" transform="matrix(0.4291 0.9033 -0.9033 0.4291 395.7664 -124.3244)" class="st47" width="3.6" height="1.5"/>
				
					<rect x="271" y="262.1" transform="matrix(0.429 0.9033 -0.9033 0.429 393.8891 -97.4352)" class="st47" width="6.1" height="1.5"/>
				
					<rect x="262.6" y="265.3" transform="matrix(0.4291 0.9033 -0.9033 0.4291 391.2462 -86.9088)" class="st47" width="3.6" height="1.5"/>
				
					<rect x="267.1" y="263.1" transform="matrix(0.4291 0.9033 -0.9033 0.4291 391.8922 -92.2538)" class="st47" width="3.6" height="1.5"/>
				
					<rect x="303.5" y="245.8" transform="matrix(0.4291 0.9033 -0.9033 0.4291 397.058 -135.0147)" class="st47" width="3.6" height="1.5"/>
				
					<rect x="308.1" y="243.6" transform="matrix(0.4291 0.9033 -0.9033 0.4291 397.7036 -140.3597)" class="st47" width="3.6" height="1.5"/>
			</g>
		</g>
		<polygon class="st75" points="278,268 280.1,268.2 281.6,267 281.6,266 279.9,266.9 279.9,266.1 279.5,266.1 279.2,266.9 		"/>
		
			<linearGradient id="SVGID_21_" gradientUnits="userSpaceOnUse" x1="-8723.8184" y1="268.9785" x2="-8723.8184" y2="256.2936" gradientTransform="matrix(-1 0 0 1 -8450.8184 0)">
			<stop  offset="0" style="stop-color:#4B7BBE"/>
			<stop  offset="0.7731" style="stop-color:#325BA9"/>
		</linearGradient>
		<path class="st76" d="M270.1,256.3c0.9,2.5,1.8,5.1,2.7,7.6c2.1,1,4.2,2,6.3,3c-0.5,1.3-0.3,0.8-0.8,2.1c-1.2-0.3-2.4-0.7-3.7-1.2
			c-1.6-0.6-3.1-1.2-4.4-1.9c-0.7-1-1.4-2.3-2-3.7c-0.7-1.6-1.1-3.1-1.4-4.4c-0.2-0.7,0.3-1.3,1-1.4L270.1,256.3z"/>
	</g>
	<path class="st2" d="M124.1,286.3c0.1,3.5-2.9,6.3-6.3,6.3H77.5c3.4,0,6.2-2.8,6.2-6.2c0-3.4,2.8-6.2,6.2-6.2c0.1,0,0.2,0,0.4,0
		c2.2,0.1,4.3-0.9,5.5-2.8c1.7-2.6,4.8-4.4,8.2-4.4c5.1,0,9.3,3.9,9.7,8.8c1.1-1,2.6-1.7,4.2-1.7C121.3,280.2,124,282.9,124.1,286.3
		z"/>
	<g>
		
			<rect x="418" y="264.6" transform="matrix(-1 4.491373e-11 -4.491373e-11 -1 906.5017 538.498)" class="st45" width="70.5" height="9.3"/>
		<path class="st77" d="M483.4,226.8h14.2c0.4,0,0.8,0.4,0.8,0.8v4.3h-15.8v-4.3C482.6,227.2,483,226.8,483.4,226.8z"/>
		<path class="st5" d="M405.9,292.4h48.9c5.3,0,9.6-4.3,9.6-9.6l0,0c0-5.3-4.3-9.6-9.6-9.6h-48.9c-5.3,0-9.6,4.3-9.6,9.6l0,0
			C396.3,288.1,400.6,292.4,405.9,292.4z"/>
		<path class="st21" d="M413.8,292.4h48.9c5.3,0,9.6-4.3,9.6-9.6l0,0c0-5.3-4.3-9.6-9.6-9.6h-48.9c-5.3,0-9.6,4.3-9.6,9.6l0,0
			C404.3,288.1,408.6,292.4,413.8,292.4z"/>
		<path class="st5" d="M423,292.4h48.9c5.3,0,9.6-4.3,9.6-9.6l0,0c0-5.3-4.3-9.6-9.6-9.6H423c-5.3,0-9.6,4.3-9.6,9.6l0,0
			C413.4,288.1,417.7,292.4,423,292.4z"/>
		<path class="st21" d="M433.9,292.4H503c5.3,0,9.6-4.3,9.6-9.6l0,0c0-5.3-4.3-9.6-9.6-9.6h-69.2c-5.3,0-9.6,4.3-9.6,9.6l0,0
			C424.3,288.1,428.6,292.4,433.9,292.4z"/>
		<path class="st32" d="M438.8,259.4h39.1V222c0-0.9-0.7-1.6-1.6-1.6h-35.9c-0.9,0-1.6,0.7-1.6,1.6V259.4z"/>
		<path class="st31" d="M415.6,259.4h23.2v-27.5c0-6.4-5.2-11.6-11.6-11.6h0c-6.4,0-11.6,5.2-11.6,11.6V259.4z"/>
		<g>
			<path id="XMLID_161_" class="st43" d="M415.6,245.9h36.5v-25.5h-24.9c-6.4,0-11.6,5.2-11.6,11.6V245.9z"/>
			<path class="st16" d="M427.8,242.8l-0.2-1.2c0.1-0.1,0.1-0.1,0.2-0.2l5.4,0.3l1.1-1.2c0,0,0,0,0,0c0.1,0.6,0.1,1.3,0,2l-5.1,0.6
				c-0.2-0.1-0.6-0.3-1.1-0.3C428,242.7,427.9,242.7,427.8,242.8z"/>
			<path class="st16" d="M429.2,244.1l0.1,1.4l4.4-0.2c-0.1,0.3-0.1,0.4-0.1,0.4c0,0.1,0,0.1-0.1,0.2h-5.1l-0.2-1.1L429.2,244.1z"/>
			<path class="st16" d="M423.6,241.3l0.7-0.5v0.4l1.8,0.1c0.1,0.2,0.4,0.4,0.6,0.5l0.2,1c-0.2,0-0.4-0.1-0.5-0.1
				c0,0.1-0.1,0.1-0.1,0.2c0,0.2,0.3,0.4,0.7,0.6c-0.7,0.1-1.2,0.4-1.2,0.7c0,0.1,0,0.1,0.1,0.2c-0.1,0-0.2,0.1-0.2,0.2
				c0,0.1,0.1,0.2,0.2,0.3c0.1,0.1,0.2,0,0.3,0c0,0.1,0.1,0.1,0.1,0.2c0.2,0.2,0.4,0.1,0.7,0.1c0.1,0,0.3,0,0.4-0.1l0.2,0.8h-4.4
				v-4.5C423.3,241.4,423.5,241.3,423.6,241.3z"/>
			<path class="st16" d="M432.1,239h-7.7v0.6c-0.2-0.1-0.4-0.1-0.7-0.1c-0.1,0-0.3,0-0.4,0c0.3-0.2,0.5-0.5,0.5-0.8c0-0.5-0.4-1-1-1
				s-1,0.4-1,1c0,0.3,0.2,0.6,0.4,0.8c0,0,0,0.1,0,0.1c0,0.1,0.1,0.2,0.2,0.3v0.3c-0.4,0.1-0.7,0.3-0.7,0.5c0,0,0,0.1,0.1,0.2
				c-0.1,0-0.1,0.1-0.2,0.2c0,0.1,0.1,0.2,0.1,0.2c0.1,0,0.2,0,0.3,0c0,0,0,0.1,0.1,0.2c0.1,0.1,0.1,0.1,0.2,0.1v4.4h-6.7v-13.9
				c0-5.8,4.3-10.6,9.9-11.5l8.8,14.2c0,0.1-0.1,0.2-0.2,0.4L432.1,239z"/>
			<path class="st78" d="M422.1,241.4c-0.1-0.1-0.1-0.1-0.1-0.2c-0.1,0.1-0.2,0.1-0.3,0c-0.1,0-0.2-0.1-0.1-0.2
				c0-0.1,0.1-0.2,0.2-0.2c-0.1-0.1-0.1-0.1-0.1-0.2c0-0.2,0.3-0.4,0.7-0.5v1.4C422.2,241.5,422.2,241.5,422.1,241.4z"/>
			<path class="st78" d="M422.3,239.8c-0.1-0.1-0.2-0.2-0.2-0.3c0,0,0,0,0-0.1c0.1,0,0.1,0.1,0.2,0.1V239.8z"/>
			<path class="st78" d="M423.6,241.3c-0.2,0.1-0.3,0.1-0.5,0.1v-1.9c0,0,0.1,0,0.1-0.1c0.1,0,0.2,0,0.4,0c0.3,0,0.5,0.1,0.7,0.1
				v1.2L423.6,241.3z"/>
			<path class="st19" d="M428.1,244.9L428.1,244.9l0.3,1h-0.8l-0.2-0.8C427.6,245,427.8,244.9,428.1,244.9z"/>
			<path class="st19" d="M422.3,240.1v-0.3v-0.3c-0.1,0-0.1-0.1-0.2-0.1c-0.2-0.2-0.4-0.5-0.4-0.8c0-0.5,0.4-1,1-1s1,0.4,1,1
				c0,0.4-0.2,0.7-0.5,0.8c0,0-0.1,0-0.1,0.1v1.9v4.5h-0.8v-4.4V240.1z"/>
			<path class="st78" d="M428.1,244.9c-0.3,0.1-0.5,0.1-0.7,0.2c-0.1,0-0.3,0.1-0.4,0.1c-0.3,0-0.5,0-0.7-0.1
				c-0.1-0.1-0.1-0.1-0.1-0.2c-0.1,0.1-0.2,0.1-0.3,0c-0.1,0-0.2-0.2-0.2-0.3c0-0.1,0.1-0.2,0.2-0.2c-0.1-0.1-0.1-0.2-0.1-0.2
				c0-0.3,0.5-0.6,1.2-0.7c-0.4-0.1-0.7-0.4-0.7-0.6c0,0,0-0.1,0.1-0.2c0.2,0,0.4,0.1,0.5,0.1c0.2,0,0.3,0.1,0.5,0.1
				c0.1,0,0.2-0.1,0.4-0.1c0.1,0,0.2,0,0.3,0c0.5,0,0.9,0.2,1.1,0.3l0.1,1.1L428.1,244.9L428.1,244.9z"/>
			<path class="st79" d="M427.7,241.4c0.1-0.2,0.2-0.4,0.2-0.6c0-0.5-0.4-1-1-1s-1,0.4-1,1c0,0.2,0.1,0.3,0.2,0.5l-1.8-0.1v-0.4
				v-1.2V239h7.7l2.1-3.9c-0.2,0.5-0.6,1.4-0.7,2.1c0,0.1,0,0.1,0,0.2c-0.1,1,0.3,1.2,0.6,2.5c0,0.2,0.1,0.3,0.1,0.5l-1.1,1.2
				L427.7,241.4z"/>
			<path class="st26" d="M435.6,228.9c0,0.2,0,0.3,0,0.3c0,0.4,0,0.9,0.1,1.2c0.3,0.1,0.7,0.2,1.3,0.3c0.2,0,0.4,0.1,0.6,0.1
				c0,0.2,0,0.4,0,0.6c0,0.1,0,0.3,0,0.4c-0.3,0-0.7,0.1-1.3,0.3c-0.3,0.1-0.5,0.2-0.8,0.4c-0.2-0.2-0.3-0.4-0.3-0.7
				c0.1-1.1,0.3-2.4,0.4-3.6c0,0,0,0,0.1,0C435.6,228.6,435.6,228.6,435.6,228.9z"/>
			<path class="st80" d="M437,237.9c-0.2,1.4-0.3,2.9-0.4,4.2l-1.4,0.2c0.1-1.1,0.1-1.8,0.1-2.1c0,0,0-0.4,0-0.8
				c0-0.7,0.1-1.9,0.5-3.1c0.1-0.4,0.3-0.9,0.6-1.6c0.4-0.6,0.7-1.1,1.1-1.5c0-0.2,0-0.5,0.1-0.8c0,0.1,0,0.2,0,0.2
				c0.2,0.1,0.5,0.3,1,0.3c0,0.1,0,0.1,0.1,0.2c-0.3,0.1-0.6,0.2-0.9,0.3C437.4,234.9,437.2,236.4,437,237.9z"/>
			<path class="st80" d="M436.5,245.1c0,0.3,0,0.5,0,0.8h-1.8c0-0.2,0.1-0.5,0.1-0.7L436.5,245.1z"/>
			<path class="st13" d="M436.2,232.2c0.7-0.2,1.1-0.2,1.3-0.3c0,0.2,0,0.4,0,0.6c-0.1,0.3-0.1,0.6-0.1,0.8
				c-0.3,0.3-0.7,0.8-1.1,1.5c-0.3,0.6-0.5,1.2-0.6,1.6c-0.4,1.3-0.5,2.4-0.5,3.1c0,0.4,0,0.7,0,0.8c0,0.3,0,1-0.1,2.1l1.4-0.2
				c0.1-1.4,0.2-2.8,0.4-4.2c0.2-1.5,0.4-2.9,0.7-4.3c0.3-0.1,0.6-0.2,0.9-0.3c0.1,0.2,0.2,0.5,0.4,0.7l0,0v12h-2.5
				c0-0.3,0-0.5,0-0.8l-1.7,0.1c0,0.2-0.1,0.4-0.1,0.7h-1.2c0-0.1,0-0.1,0.1-0.2c0,0,0-0.2,0.1-0.4l-4.4,0.2l-0.1-1.4l-0.1-1.1
				l5.1-0.6c0.1-0.7,0.1-1.4,0-2c0,0,0,0,0,0c0-0.2-0.1-0.4-0.1-0.5c-0.3-1.3-0.7-1.5-0.6-2.5c0-0.1,0-0.1,0-0.2
				c0.1-0.7,0.4-1.5,0.7-2.1c0.1-0.2,0.2-0.4,0.2-0.4c0,0,0-0.1,0-0.1c0.2-0.3,0.4-0.8,0.6-1.3c0.1-0.3,0.3-0.5,0.5-0.7
				C435.6,232.4,435.9,232.3,436.2,232.2z"/>
			<path class="st78" d="M436.1,226.4c0.7,0.1,1.2,0.1,1.9,0.2c-0.1,1.2,0.2,3.8,0.3,6c0,0.2,0.1,0.4,0.1,0.6
				c-0.5-0.1-0.8-0.2-1-0.3c0-0.1,0-0.2,0-0.2c0-0.2,0-0.4,0-0.6c0-0.1,0-0.3,0-0.4c0-0.2,0-0.4,0-0.6c-0.2,0-0.4-0.1-0.6-0.1
				c-0.5-0.1-1-0.2-1.3-0.3c0-0.4-0.1-0.8-0.1-1.2c0-0.1,0-0.2,0-0.3c0-0.4,0-0.4,0-0.6c0,0,0,0-0.1,0c-0.1-0.1-0.3-0.1-0.4-0.2
				c0.2-0.2,0.3-0.4,0.5-0.5c0.1-0.1,0.3-0.3,0.4-0.4C436,227.1,436.1,226.7,436.1,226.4z"/>
			<path class="st26" d="M437.6,224c-0.3,0.1-0.6,0.3-0.9,0.5c-0.6,0.5-0.8,1.2-1,1.6l0,0c0,0.4-0.1,0.9-0.1,1.4
				c0.1-0.1,0.3-0.3,0.4-0.4c0-0.1,0.1-0.5,0.1-0.8c0.7,0.1,1.2,0.1,1.9,0.2c-0.1,1.2,0.2,3.8,0.3,6c0,0.2,0.1,0.4,0.1,0.6
				c0,0.1,0,0.1,0.1,0.2c0.1,0.2,0.2,0.5,0.4,0.7l0,0c0.5,0.5,1.1,0.8,1.9,0.7c0.7-0.1,1.3-0.2,1.8-0.3l0.6-0.2
				c0.1,0,0.3-0.1,0.3-0.3c0.1-0.1,0.2-0.3,0.1-0.5c-0.2-0.9-0.7-2.7-0.7-3.1c0.1-0.7,0.1-1.3,0.1-1.7c-1-0.6-1.9-1.2-2.9-2
				c-0.2,0.4-0.4,0.8-0.5,1.2c0.2-0.4,0.3-0.8,0.5-1.2C439.4,225.8,438.5,225,437.6,224z M439.1,230.6c-0.1,0.4-0.1,0.9-0.1,1.3
				C439,231.5,439,231,439.1,230.6z M439.3,229.3c-0.1,0.3-0.1,0.6-0.2,1C439.2,229.9,439.2,229.6,439.3,229.3z M439.4,228.9
				c0.1-0.3,0.2-0.6,0.3-1C439.6,228.3,439.5,228.6,439.4,228.9z"/>
			<path class="st57" d="M442,224.1c0,0-0.1,0.1-0.1,0.1c-0.2,0.2-0.3,0.4-0.5,0.6c-0.1,0.1-0.1,0.1-0.2,0.2
				c-0.1,0.2-0.3,0.4-0.4,0.6c-0.1,0.1-0.1,0.2-0.2,0.3c-0.1,0.2-0.3,0.4-0.4,0.6c-0.9-0.7-1.9-1.5-2.8-2.5
				c-0.1-0.1-0.2-0.2-0.3-0.3c0.8-0.8,1.9-1.2,3.1-1.1c0.9,0.1,1.7,0.4,2.3,1C442.4,223.7,442.2,223.9,442,224.1z"/>
			<path class="st19" d="M427,239.8c0.5,0,1,0.4,1,1c0,0.2-0.1,0.4-0.2,0.6c-0.1,0.1-0.1,0.1-0.2,0.2l0.2,1.2c-0.1,0-0.3,0-0.4,0.1
				c-0.2,0-0.3-0.1-0.5-0.1l-0.2-1c-0.3-0.1-0.5-0.2-0.6-0.5c-0.1-0.1-0.2-0.3-0.2-0.5C426,240.2,426.4,239.8,427,239.8z"/>
			<path class="st16" d="M444.6,245.9c-0.1-0.3-0.3-0.6-0.4-0.8c0-0.1-0.1-0.2-0.2-0.3c-0.3-0.7-0.5-0.8-0.6-1.4
				c-0.3-1.2,0.8-4.8,0.8-4.8c0.2-0.7,0.5-1.7,0.5-3c0-0.7-0.4-1.4-1-1.7c0,0-0.1-0.1-0.1-0.1c0.1-0.1,0.2-0.3,0.1-0.5
				c-0.2-0.9-0.7-2.7-0.7-3.1c0.1-0.7,0.1-1.3,0.1-1.7c0.1,0,0.1,0.1,0.2,0.1c0.3-0.5,0.5-1.1,0.6-1.8c0.1-1.3-0.5-2.5-1.4-3.3
				c-0.2,0.2-0.4,0.4-0.6,0.6c0.2-0.2,0.4-0.4,0.6-0.6c2.1-2,4.9-3.2,8-3.2h1.5v25.5H444.6z"/>
			<path class="st16" d="M441.4,224.8c0.2-0.2,0.3-0.4,0.5-0.6C441.7,224.4,441.6,224.6,441.4,224.8z"/>
			<path class="st16" d="M441.2,225c-0.1,0.2-0.3,0.4-0.4,0.6C441,225.4,441.1,225.2,441.2,225z"/>
			<path class="st79" d="M439,233.9c0.5,0.5,1.1,0.8,1.9,0.7c0.7-0.1,1.3-0.2,1.8-0.3l0.6-0.2c0.1,0,0.3-0.1,0.3-0.3
				c0,0,0.1,0.1,0.1,0.1c0.6,0.3,1,1,1,1.7c0,1.3-0.3,2.2-0.5,3c0,0-1.1,3.6-0.8,4.8c0.1,0.5,0.3,0.7,0.6,1.4
				c0.1,0.1,0.1,0.2,0.2,0.3c0.1,0.2,0.3,0.5,0.4,0.8H439V233.9z"/>
			<path class="st47" d="M440.3,226.5c0.1-0.2,0.2-0.4,0.4-0.6c0.1-0.1,0.1-0.2,0.2-0.3c0.1-0.2,0.3-0.4,0.4-0.6
				c0.1-0.1,0.1-0.1,0.2-0.2c0.2-0.2,0.3-0.4,0.5-0.6c0,0,0.1-0.1,0.1-0.1c0.2-0.2,0.4-0.4,0.6-0.6c0.9,0.8,1.5,2,1.4,3.3
				c-0.1,0.6-0.3,1.2-0.6,1.8c-0.1,0-0.1-0.1-0.2-0.1C442.2,227.9,441.3,227.2,440.3,226.5z"/>
		</g>
		<path class="st47" d="M502.6,230.3h-24.7v29.1h26.3v-27.5C504.2,231,503.5,230.3,502.6,230.3z"/>
		<circle class="st59" cx="503" cy="282.8" r="5.5"/>
		<circle class="st59" cx="486.1" cy="282.8" r="5.5"/>
		<circle class="st59" cx="469.1" cy="282.8" r="5.5"/>
		<circle class="st59" cx="452.1" cy="282.8" r="5.5"/>
		<circle class="st59" cx="435.1" cy="282.8" r="5.5"/>
		
			<rect x="409" y="259.4" transform="matrix(-1 4.484934e-11 -4.484934e-11 -1 906.5017 524.55)" class="st59" width="88.6" height="5.7"/>
		
			<rect x="409" y="259.4" transform="matrix(-1 4.489019e-11 -4.489019e-11 -1 906.5017 528.1354)" class="st59" width="88.6" height="9.3"/>
		
			<rect x="406" y="251.3" transform="matrix(-1 4.484845e-11 -4.484845e-11 -1 821.6147 510.7395)" class="st31" width="9.7" height="8.1"/>
		
			<rect x="409" y="259.4" transform="matrix(-1 4.489019e-11 -4.489019e-11 -1 906.5017 521.2196)" class="st28" width="88.6" height="2.4"/>
		
			<rect x="482.6" y="236.5" transform="matrix(-1 4.507804e-11 -4.507804e-11 -1 981.058 490.0758)" class="st32" width="15.8" height="17.1"/>
		
			<rect x="457.2" y="224.6" transform="matrix(-1 4.484800e-11 -4.484800e-11 -1 930.3081 478.1819)" class="st81" width="15.8" height="29"/>
	</g>
	<g>
		
			<linearGradient id="SVGID_22_" gradientUnits="userSpaceOnUse" x1="-9087.4229" y1="250.999" x2="-9087.4229" y2="199.8871" gradientTransform="matrix(-1 0 0 1 -8974.3174 0)">
			<stop  offset="0" style="stop-color:#F4F5F7"/>
			<stop  offset="1" style="stop-color:#EBEBEF;stop-opacity:0"/>
		</linearGradient>
		<path class="st82" d="M102.5,251h38.7v-51.1c-18.5,0-37.1,0-55.6,0c-1.5,7.4-0.4,12.6,0.9,16c4.1,11,14.1,13.7,16.4,24.6
			C103.8,244.8,103.2,248.6,102.5,251z"/>
		<linearGradient id="SVGID_23_" gradientUnits="userSpaceOnUse" x1="113.1057" y1="244.8187" x2="113.1057" y2="210.1197">
			<stop  offset="0" style="stop-color:#FFFFFF"/>
			<stop  offset="1" style="stop-color:#FFFFFF;stop-opacity:0"/>
		</linearGradient>
		<path class="st83" d="M102.5,251h38.7v-51.1c-18.5,0-37.1,0-55.6,0c-1.5,7.4-0.4,12.6,0.9,16c4.1,11,14.1,13.7,16.4,24.6
			C103.8,244.8,103.2,248.6,102.5,251z"/>
		<path class="st28" d="M98,287.4l2.9-2.9L86.4,270c-0.9-0.9-1.5-2.2-1.5-3.5c0-2.7,2.2-5,5-5h7.8v-4.1h-7.8c-5,0-9.1,4.1-9.1,9.1
			c0,2.4,0.9,4.7,2.7,6.4L98,287.4z"/>
		
			<linearGradient id="SVGID_24_" gradientUnits="userSpaceOnUse" x1="-8799.7344" y1="271.7887" x2="-8754.1582" y2="271.7887" gradientTransform="matrix(1 0 0 1 8896.7393 0)">
			<stop  offset="0.3851" style="stop-color:#253959"/>
			<stop  offset="0.6157" style="stop-color:#3C4D69"/>
			<stop  offset="0.8367" style="stop-color:#4B5B75"/>
			<stop  offset="1" style="stop-color:#51607A"/>
		</linearGradient>
		<rect x="97" y="251" class="st84" width="45.6" height="41.6"/>
		<path class="st0" d="M97,292.6V251h45.6c-9.3,1.4-14.2,5-17,7.9c-8.2,8.6-5.2,19.2-13.7,27.2C107.1,290.6,101.1,292.1,97,292.6z"
			/>
		<line class="st85" x1="107.8" y1="250.8" x2="107.8" y2="266.4"/>
		<path class="st58" d="M107.8,267.2c0.5,0,0.9-0.4,0.9-0.9v-15.5c0-0.5-0.4-0.9-0.9-0.9s-0.9,0.4-0.9,0.9v15.5
			C107,266.8,107.3,267.2,107.8,267.2z"/>
		
			<rect x="108.2" y="279.4" transform="matrix(-1 4.495903e-11 -4.495903e-11 -1 269.1495 571.9457)" class="st43" width="52.7" height="13.2"/>
		<path class="st86" d="M108.2,279.9c0,0,26.4,0.2,35.7-0.7s15.3-3.2,16.4-3.6"/>
		
			<rect x="134.6" y="279.4" transform="matrix(-1 4.502786e-11 -4.502786e-11 -1 295.4882 571.9457)" class="st20" width="26.3" height="13.2"/>
		
			<rect x="103.7" y="265.9" transform="matrix(-1 4.491995e-11 -4.491995e-11 -1 215.6376 540.0946)" class="st87" width="8.3" height="8.3"/>
	</g>
	<rect x="291.2" y="182.3" class="st12" width="76.9" height="12.7"/>
	<rect x="366.2" y="182.3" class="st13" width="1.9" height="12.7"/>
	<rect x="291.2" y="182.3" class="st13" width="1.9" height="12.7"/>
	<g class="st1">
		<circle class="st13" cx="299.4" cy="188.6" r="3.1"/>
		<circle class="st13" cx="311.6" cy="188.6" r="3.1"/>
		<circle class="st13" cx="323.7" cy="188.6" r="3.1"/>
		<circle class="st13" cx="335.9" cy="188.6" r="3.1"/>
		<circle class="st13" cx="348.1" cy="188.6" r="3.1"/>
		<circle class="st13" cx="360.2" cy="188.6" r="3.1"/>
	</g>
	<path id="XMLID_160_" class="st88" d="M329.6,210.7c-1.3,2.4-2.8,4.7-4.7,6.7c-5,5.4-11.9,8.7-19.5,8.7"/>
	<path id="XMLID_159_" class="st89" d="M307.4,166.7c10.2,0,19.1,5.8,23.9,14.3"/>
	<line class="st90" x1="449.5" y1="86.3" x2="427.9" y2="107.3"/>
	<line class="st90" x1="403.2" y1="83.5" x2="427.9" y2="107.3"/>
	<line class="st90" x1="299.2" y1="51.5" x2="271.7" y2="51.5"/>
	<line class="st90" x1="271.7" y1="51.5" x2="292.7" y2="19.6"/>
	<line class="st90" x1="251.7" y1="31.5" x2="271.7" y2="51.5"/>
	<circle class="st31" cx="251.7" cy="31.5" r="3"/>
	<circle class="st43" cx="299.2" cy="51.5" r="3"/>
	<circle class="st91" cx="483.3" cy="44.5" r="1.6"/>
	<circle class="st91" cx="477.8" cy="98.1" r="1.6"/>
	<circle class="st91" cx="493.4" cy="53.7" r="1.6"/>
	<circle class="st91" cx="333" cy="33.5" r="1.6"/>
	<circle class="st91" cx="365.3" cy="29.9" r="1.6"/>
	<circle class="st91" cx="288.4" cy="74.3" r="1.6"/>
	<circle class="st91" cx="348.3" cy="22.3" r="3.3"/>
	<circle class="st91" cx="361.4" cy="45.8" r="3.3"/>
	<circle class="st91" cx="299.3" cy="85.4" r="3.3"/>
	<circle class="st91" cx="446.8" cy="53.9" r="3.3"/>
	<circle class="st31" cx="449.5" cy="86.3" r="3"/>
	<circle id="XMLID_158_" class="st3" cx="291.7" cy="18.7" r="8.3"/>
	<path class="st43" d="M288.1,24.4c-0.6,0.2-1.1,0.5-1.6,0.8c1.4,1.1,3.2,1.8,5.2,1.8c1.8,0,3.5-0.6,4.8-1.6
		c-0.6-0.4-1.1-0.9-1.5-1.1c-0.9-0.4-1.4-1.2-1.4-2.1c0-0.7,0.3-1.3,0.8-1.7c1-0.8,1.6-2.1,1.6-3.5c-0.1-2.3-1.9-4.1-4.2-4.2
		c-2.5-0.1-4.6,1.9-4.6,4.4c0,1.3,0.6,2.5,1.5,3.3c0.5,0.4,0.8,1.1,0.8,1.8v0C289.6,23.2,289,24,288.1,24.4z"/>
	<circle id="XMLID_132_" class="st3" cx="427.9" cy="107.3" r="8.4"/>
	<g>
		<path class="st2" d="M426.7,110.7l-3-3c-0.2-0.2-0.2-0.5,0-0.7l1.2-1.2c0.2-0.2,0.5-0.2,0.7,0l1.5,1.5l3.2-3.2
			c0.2-0.2,0.5-0.2,0.7,0l1.2,1.2c0.2,0.2,0.2,0.5,0,0.7l-4.8,4.8C427.2,110.9,426.9,110.9,426.7,110.7z"/>
	</g>
	<circle id="XMLID_70_" class="st3" cx="403.2" cy="83.5" r="8.3"/>
	<path class="st43" d="M399.7,89.5c-0.5,0.2-1,0.5-1.4,0.8c1.4,1,3,1.6,4.8,1.6c1.8,0,3.4-0.6,4.8-1.5c-0.5-0.3-0.9-0.6-1.4-0.8
		c-0.7-0.3-1.2-1-1.3-1.9h1.9c0.3,0,0.5-0.2,0.5-0.5V82c0-2.5-2-4.5-4.5-4.5c-1.2,0-2.3,0.5-3.2,1.3c-1.3,1.3-1.3,2.9-1.3,3.2
		c0,0.1,0,4.2,0,4.3c0,0,0,0.8,0,0.9c0,0.3,0.2,0.5,0.5,0.5h1.9C400.9,88.4,400.4,89.1,399.7,89.5z"/>
	<circle id="XMLID_69_" class="st43" cx="271.7" cy="51.5" r="8.3"/>
	<path class="st3" d="M268.3,57.5c-0.5,0.2-1,0.5-1.4,0.8c1.4,1,3,1.6,4.8,1.6c1.8,0,3.4-0.6,4.8-1.5c-0.5-0.3-0.9-0.6-1.4-0.8
		c-0.7-0.3-1.2-1-1.3-1.9h1.9c0.3,0,0.5-0.2,0.5-0.5V50c0-2.5-2-4.5-4.5-4.5c-1.2,0-2.3,0.5-3.2,1.3c-1.3,1.3-1.3,2.9-1.3,3.2
		c0,0.1,0,4.2,0,4.3c0,0,0,0.8,0,0.9c0,0.3,0.2,0.5,0.5,0.5h1.9C269.5,56.5,269,57.2,268.3,57.5z"/>
	<line class="st90" x1="153.4" y1="52.6" x2="175" y2="58.2"/>
	<line class="st90" x1="152.9" y1="32" x2="153.4" y2="52.6"/>
	<line class="st90" x1="136.1" y1="65" x2="153.4" y2="52.6"/>
	<circle class="st43" cx="153.4" cy="52.6" r="3"/>
	<circle class="st43" cx="175" cy="58.2" r="1.5"/>
	<circle class="st31" cx="136.1" cy="65" r="1.5"/>
	<circle class="st31" cx="152.9" cy="32" r="1.5"/>
	<circle class="st91" cx="85.8" cy="104.6" r="1.6"/>
	<circle class="st91" cx="77.2" cy="93.8" r="1.6"/>
	<circle class="st91" cx="231.5" cy="47" r="1.6"/>
	<circle class="st91" cx="222.9" cy="36.2" r="1.6"/>
	<circle class="st91" cx="109.5" cy="72.4" r="1.6"/>
	<circle class="st91" cx="101.8" cy="128.9" r="1.6"/>
</g>
</svg>
